<?xml version="1.0" standalone="no"?>
<!DOCTYPE svg PUBLIC "-//W3C//DTD SVG 1.1//EN" "http://www.w3.org/Graphics/SVG/1.1/DTD/svg11.dtd" >
<svg xmlns="http://www.w3.org/2000/svg">
<metadata></metadata>
<defs>
<font id="meta_serif_probook_italic" horiz-adv-x="1120" >
<font-face units-per-em="2048" ascent="1612" descent="-436" />
<missing-glyph horiz-adv-x="460" />
<glyph unicode="&#xfb01;" horiz-adv-x="1071" d="M-195 -289q129 8 182 52t76 165l189 965h-129l12 65l135 46l31 139q39 177 149 264.5t277 87.5q169 0 260 -57l-41 -193h-145q0 86 -22.5 124t-96.5 38q-146 0 -186 -195l-41 -206h352q151 0 151 -136q0 -46 -16 -118l-115 -502q-12 -49 -12 -82q0 -37 19.5 -53.5 t66.5 -16.5q29 0 76 6l6 -63q-129 -59 -229 -59q-67 0 -101.5 39t-34.5 112q0 44 17 117l115 475q12 53 12 86q0 45 -25 63.5t-82 18.5h-221l-190 -948q-67 -330 -314 -330q-57 0 -125 33v63z" />
<glyph unicode="&#xfb02;" horiz-adv-x="1103" d="M-195 -289q129 8 182 52t76 165l189 965h-129l12 65l135 46l29 131q80 360 412 360q124 0 211 -55l122 55h27q10 -30 10 -96q0 -119 -30 -250l-193 -899q-12 -62 -12 -84q0 -37 19.5 -52.5t68.5 -15.5q32 0 82 6l6 -63q-126 -59 -225 -59q-75 0 -109.5 38.5t-34.5 116.5 q0 43 13 113l206 964q7 35 7 58q0 135 -160 135q-94 0 -149.5 -52.5t-80.5 -178.5l-34 -170h247l-51 -113h-217l-190 -948q-67 -330 -314 -330q-57 0 -125 33v63z" />
<glyph unicode="&#xfb03;" horiz-adv-x="1636" d="M-190 -289q129 8 182 52t76 165l188 965h-129l12 65l135 46l31 129q83 346 436 346q133 0 267 -70q103 86 278 86t266 -57l-41 -193h-145q0 86 -22.5 124t-96.5 38q-146 0 -186 -195l-41 -206h352q152 0 152 -136q0 -41 -17 -118l-114 -502q-13 -54 -13 -82 q0 -37 19.5 -53.5t66.5 -16.5q30 0 76 6l6 -63q-129 -59 -229 -59q-67 0 -101 39t-34 112q0 48 16 117l115 475q12 53 12 86q0 45 -25 63.5t-81 18.5h-217l-185 -922q-67 -329 -313 -329q-59 0 -125 32v64q129 8 182 52t76 165l182 938h-383l-190 -948q-67 -330 -314 -330 q-56 0 -124 33v63zM459 1006h385l39 190q10 48 10 78q0 58 -47 87.5t-127 29.5q-180 0 -225 -220z" />
<glyph unicode="&#xfb04;" horiz-adv-x="1669" d="M-195 -289q129 8 182 52t76 165l189 965h-129l12 65l135 46l31 129q83 346 436 346q133 0 267 -70q50 42 122.5 64t149.5 22q124 0 211 -55l123 55h26q11 -33 11 -96q0 -115 -31 -250l-193 -899q-12 -62 -12 -84q0 -37 19.5 -52.5t68.5 -15.5q33 0 82 6l6 -63 q-126 -59 -225 -59q-75 0 -109 38.5t-34 116.5q0 49 12 113l207 964q6 30 6 58q0 135 -160 135q-94 0 -149 -52t-80 -179l-35 -170h248l-51 -113h-218l-184 -922q-67 -329 -313 -329q-59 0 -125 32v64q129 8 182 52t76 165l182 938h-383l-190 -948q-67 -330 -314 -330 q-57 0 -125 33v63zM455 1006h385l39 190q10 48 10 78q0 58 -47 87.5t-127 29.5q-181 0 -226 -220z" />
<glyph horiz-adv-x="0" />
<glyph horiz-adv-x="0" />
<glyph horiz-adv-x="682" />
<glyph unicode="&#xd;" horiz-adv-x="460" />
<glyph unicode=" "  horiz-adv-x="460" />
<glyph unicode="&#x09;" horiz-adv-x="460" />
<glyph unicode="&#xa0;" horiz-adv-x="460" />
<glyph unicode="!" horiz-adv-x="665" d="M113 123q0 56 38 94.5t95 38.5q56 0 95.5 -39t39.5 -94q0 -58 -40.5 -98.5t-96.5 -40.5q-55 0 -93 40t-38 99zM250 430l168 977l248 31l-308 -1008h-108z" />
<glyph unicode="&#x22;" horiz-adv-x="888" d="M238 928l102 524h174l-102 -524h-174zM604 928l103 524h174l-103 -524h-174z" />
<glyph unicode="#" horiz-adv-x="1148" d="M84 432l27 139h206l103 310h-189l27 141h209l143 428h148l-144 -428h250l144 428h147l-143 -428h192l-26 -141h-211l-105 -310h193l-27 -139h-211l-145 -432h-148l144 432h-250l-144 -432h-147l143 432h-186zM465 571h250l104 310h-250z" />
<glyph unicode="$" horiz-adv-x="1017" d="M10 94l47 256h131q0 -132 35 -197t133 -81l119 581l-86 45q-215 110 -215 328q0 182 127 293.5t334 114.5l37 174h92l-37 -178q107 -10 183.5 -41.5t117.5 -71.5l-39 -221h-125q0 195 -157 231l-109 -520l61 -31q60 -32 102 -62.5t82 -73.5t60.5 -99.5t20.5 -124.5 q0 -207 -124.5 -324t-373.5 -121l-35 -176h-92l37 178q-210 17 -326 121zM348 1087q0 -90 39 -138.5t129 -98.5l100 487q-125 -1 -196.5 -70.5t-71.5 -179.5zM446 68q143 3 220 77.5t77 202.5q0 88 -46.5 150t-137.5 112z" />
<glyph unicode="%" horiz-adv-x="1900" d="M86 784q0 101 28.5 197.5t81 175.5t135 127.5t181.5 48.5q132 0 201 -77.5t69 -221.5q0 -147 -50.5 -269.5t-148.5 -197.5t-225 -75q-129 0 -200.5 73.5t-71.5 218.5zM246 -252l1263 1747h111l-1264 -1747h-110zM254 766q0 -205 121 -205q51 0 93.5 37.5t69 94t45 125.5 t26 128.5t7.5 106.5q0 202 -118 202q-73 0 -130.5 -80t-85.5 -190t-28 -219zM1143 272q0 101 28.5 197.5t81 175.5t135 127.5t181.5 48.5q132 0 201 -77.5t69 -221.5q0 -147 -50.5 -269.5t-148.5 -197.5t-225 -75q-129 0 -200.5 73.5t-71.5 218.5zM1311 254q0 -205 121 -205 q51 0 93.5 37.5t69 94t45 125.5t26 128.5t7.5 106.5q0 202 -119 202q-73 0 -130.5 -80t-85 -190t-27.5 -219z" />
<glyph unicode="&#x26;" horiz-adv-x="1390" d="M20 309q0 73 32.5 136.5t91.5 113t131.5 87.5t162.5 69l-43 49q-67 75 -98 141t-31 156q0 53 15.5 105t49 100.5t81.5 85.5t119 59.5t155 22.5q174 0 272.5 -77t98.5 -214q0 -251 -402 -402l328 -389q111 160 111 271q0 49 -29 68t-107 22l15 71h428l-15 -71 q-79 -1 -114 -26.5t-68 -98.5q-61 -133 -89.5 -185.5t-72.5 -117.5l132 -160q27 -28 68.5 -42.5t78.5 -14.5l-10 -68h-275l-121 145q-209 -174 -432 -174q-231 0 -347 88.5t-116 249.5zM233 309q0 -109 69 -175t190 -66q196 0 366 143l-373 446q-130 -63 -191 -142t-61 -206 zM446 1100q0 -70 33 -131t99 -133l32 -37q138 76 199 148t61 190q0 98 -50.5 151t-139.5 53q-99 0 -166.5 -64.5t-67.5 -176.5z" />
<glyph unicode="'" horiz-adv-x="522" d="M238 928l102 524h174l-102 -524h-174z" />
<glyph unicode="(" horiz-adv-x="749" d="M123 369q0 140 26 279t83 277.5t140.5 259.5t206 226t271.5 176l37 -69q-124 -72 -225.5 -181.5t-167.5 -231t-111 -259t-64.5 -265t-19.5 -249.5q0 -209 64.5 -365.5t179.5 -226.5l-49 -66q-169 84 -270 266t-101 429z" />
<glyph unicode=")" horiz-adv-x="749" d="M-72 -256q124 72 225.5 181.5t167.5 231t111 259t64.5 265t19.5 249.5q0 209 -64.5 365.5t-179.5 226.5l50 65q169 -84 269.5 -265.5t100.5 -428.5q0 -140 -26 -279t-83 -278t-140.5 -260t-206 -226t-271.5 -176z" />
<glyph unicode="*" horiz-adv-x="937" d="M102 893l236 174l-176 229l61 64l230 -178l157 248l78 -37l-92 -279l281 -67l-13 -91l-286 -4l16 -295l-94 -20l-86 285l-269 -111z" />
<glyph unicode="+" horiz-adv-x="1187" d="M113 502l20 108h414l84 428h121l-84 -428h417l-20 -108h-418l-84 -432h-121l84 432h-413z" />
<glyph unicode="," horiz-adv-x="540" d="M31 -219q91 35 148 81.5t57 92.5q0 12 -2.5 20.5t-11 15.5t-11.5 9.5t-18.5 9.5t-18.5 8q-68 30 -68 113q0 63 38.5 100t101.5 37q71 0 116.5 -51.5t45.5 -130.5q0 -126 -101.5 -225.5t-240.5 -139.5z" />
<glyph unicode="-" horiz-adv-x="641" d="M98 481l27 146h416l-27 -146h-416z" />
<glyph unicode="." horiz-adv-x="516" d="M92 121q0 63 41.5 106t104.5 43t104 -43t41 -106q0 -64 -41 -107t-104 -43t-104.5 43.5t-41.5 106.5z" />
<glyph unicode="/" horiz-adv-x="808" d="M-102 -305l893 1864h141l-895 -1864h-139z" />
<glyph unicode="0" horiz-adv-x="1159" d="M92 387q0 130 37.5 252t106 220t175.5 157t236 59q201 0 310.5 -114.5t109.5 -313.5q0 -131 -39 -252.5t-109 -216t-177 -151t-234 -56.5q-201 0 -308.5 110.5t-107.5 305.5zM283 346q0 -272 229 -272q118 0 203 92q78 86 113.5 232t35.5 302q0 135 -57.5 203t-167.5 68 q-141 0 -229 -129q-65 -93 -96 -230t-31 -266z" />
<glyph unicode="1" horiz-adv-x="813" d="M41 0l14 70q52 3 82 6.5t58 11t42 17t27 28.5t20 41t15 59l133 629q-110 -53 -260 -98l-12 67l381 220h118l-178 -830q-8 -36 -8 -65q0 -49 38 -66t146 -20l-14 -70h-602z" />
<glyph unicode="2" horiz-adv-x="933" d="M-31 0l19 94l270 182q103 69 169.5 122.5t122.5 115.5t81.5 127.5t25.5 140.5q0 160 -186 160q-150 0 -287 -141l-59 69q69 92 177 148.5t235 56.5q161 0 247 -73t86 -197q0 -83 -33.5 -157t-106 -147t-165.5 -140t-233 -152l-99 -59h574l-55 -150h-783z" />
<glyph unicode="3" horiz-adv-x="935" d="M-154 -217q139 -21 199 -21q108 0 201.5 24.5t167.5 72t116.5 125t42.5 176.5q0 106 -67 150t-205 44q-22 0 -92 -4l18 107q49 -6 115 -6q140 0 225.5 87.5t85.5 223.5q0 182 -200 182q-89 0 -163.5 -33t-150.5 -96l-59 68q85 90 196 141t224 51q162 0 258 -76t96 -225 q0 -115 -88 -218t-229 -150q119 -26 180 -92t61 -181q0 -86 -38.5 -162t-104.5 -131t-151 -95.5t-180 -60.5t-191 -20q-130 0 -244 31z" />
<glyph unicode="4" horiz-adv-x="1077" d="M-31 37l19 86l651 928h201l-701 -914h473q65 298 203 565l113 21l-125 -586h172l-23 -100h-172l-78 -365l-198 -39l86 404h-621z" />
<glyph unicode="5" horiz-adv-x="892" d="M-158 -203q119 -35 242 -35q100 0 183.5 23t149 69.5t102 123t36.5 176.5q0 229 -215 229q-134 0 -270 -49l190 700h653l-61 -153h-512l-102 -410q103 27 202 27q147 0 232.5 -83t85.5 -231q0 -104 -35 -190.5t-95.5 -146.5t-142.5 -102t-174.5 -61.5t-193.5 -19.5 q-142 0 -256 43z" />
<glyph unicode="6" horiz-adv-x="1126" d="M92 416q0 157 51 297.5t138 249t209.5 200.5t258 157t291.5 114l15 -84q-541 -211 -733 -652q62 58 163 95.5t207 37.5q136 0 222.5 -92t86.5 -243q0 -150 -72.5 -272t-189.5 -187.5t-252 -65.5q-191 0 -293 114.5t-102 330.5zM264 393q0 -64 12 -118.5t37.5 -102 t73.5 -75t113 -27.5q129 0 214 113t85 292q0 118 -46 175t-141 57q-69 0 -159 -27.5t-160 -79.5q-29 -100 -29 -207z" />
<glyph unicode="7" horiz-adv-x="944" d="M0 -362q143 323 359 665t432 578h-680l57 153h817l-55 -131q-367 -384 -703 -1212z" />
<glyph unicode="8" horiz-adv-x="1122" d="M43 330q0 62 22.5 115.5t59 93.5t88.5 73t105.5 55t115.5 40q-88 43 -139 125.5t-51 173.5q0 158 124.5 264t321.5 106q188 0 296 -90t108 -219q0 -130 -95.5 -228t-267.5 -137q144 -77 204 -155t60 -174q0 -80 -33.5 -152t-94.5 -128t-155 -89t-208 -33 q-216 0 -338.5 101t-122.5 258zM236 322q0 -121 67.5 -190t202.5 -69q143 0 221 81.5t78 203.5q0 86 -60 151t-233 152q-122 -43 -199 -127.5t-77 -201.5zM432 1032q0 -80 48.5 -144t168.5 -126q264 84 264 315q0 89 -58 144t-173 55q-111 0 -180.5 -67t-69.5 -177z" />
<glyph unicode="9" horiz-adv-x="1118" d="M-61 -309q292 69 523.5 235t305.5 346q-144 -98 -311 -98q-163 0 -265 99.5t-102 261.5q0 147 69.5 271.5t189.5 196.5t263 72q191 0 302.5 -117.5t111.5 -330.5q0 -178 -55.5 -330t-150.5 -263t-228.5 -198t-282.5 -141t-319 -86zM283 549q0 -122 56 -189t163 -67 q177 0 299 100q43 105 43 244q0 66 -12.5 123.5t-39 106t-74 76.5t-110.5 28q-141 0 -233 -119t-92 -303z" />
<glyph unicode=":" horiz-adv-x="694" d="M133 121q0 63 41.5 106t104.5 43t104 -43t41 -106q0 -64 -41 -107t-104 -43t-104.5 43.5t-41.5 106.5zM270 764q0 63 41.5 106t104.5 43t104 -43t41 -106q0 -64 -41 -107t-104 -43t-104.5 43.5t-41.5 106.5z" />
<glyph unicode=";" horiz-adv-x="671" d="M51 -219q91 35 148 81.5t57 92.5q0 10 -2.5 18t-5.5 13t-10.5 10t-11.5 7.5t-15.5 7.5t-15.5 7q-68 30 -68 113q0 63 38 100t101 37q71 0 116.5 -51.5t45.5 -130.5q0 -126 -101.5 -225.5t-240.5 -139.5zM248 764q0 63 41 106t104 43t104.5 -43t41.5 -106t-41.5 -106.5 t-104.5 -43.5t-104 43t-41 107z" />
<glyph unicode="&#x3c;" horiz-adv-x="1087" d="M133 520l29 148l844 475l-27 -148l-725 -401l577 -354l-24 -125z" />
<glyph unicode="=" horiz-adv-x="1247" d="M113 354l20 109h952l-20 -109h-952zM170 657l23 109h952l-23 -109h-952z" />
<glyph unicode="&#x3e;" horiz-adv-x="1073" d="M92 115l25 137l717 354l-570 402l27 135l659 -475l-28 -148z" />
<glyph unicode="?" horiz-adv-x="907" d="M184 1153l41 184q155 97 334 97q74 0 135 -14.5t110 -45t76 -83t27 -124.5q0 -131 -76 -221t-241 -184q-53 -30 -89 -60t-56.5 -56.5t-31 -62t-13.5 -65.5t-3 -78h-78q-30 63 -30 138q0 82 44.5 150.5t139.5 133.5q57 39 85.5 60.5t62 52.5t47.5 57.5t24 63t10 82.5 q0 161 -151 161q-98 0 -152 -46.5t-80 -139.5h-135zM195 123q0 59 40.5 99t98.5 40q59 0 102 -40.5t43 -98.5q0 -62 -42.5 -106t-102.5 -44q-58 0 -98.5 44t-40.5 106z" />
<glyph unicode="@" horiz-adv-x="1855" d="M92 397q0 192 65.5 357t181.5 280t279 180.5t353 65.5q360 0 576 -195t216 -520q0 -145 -43 -257.5t-115.5 -178t-160.5 -98.5t-187 -33q-126 0 -184.5 49t-58.5 158v6q-98 -213 -297 -213q-111 0 -173.5 74.5t-62.5 208.5q0 146 48 269.5t128 204.5t182 126t212 45 q94 0 159.5 -25.5t124.5 -77.5q-8 -20 -19.5 -65t-21 -87t-10.5 -44l-88 -359q-14 -60 -14 -100q0 -51 23.5 -70.5t76.5 -19.5q55 0 109 29t101 84.5t76 147t29 204.5q0 165 -47.5 290.5t-133 202.5t-198.5 115.5t-251 38.5q-316 0 -512.5 -215.5t-196.5 -579.5 q0 -195 73.5 -346t216 -238t333.5 -87q184 0 329 49l31 -62q-180 -71 -385 -71q-225 0 -397 88.5t-269.5 261t-97.5 407.5zM668 295q0 -170 110 -170q39 0 75.5 20t71.5 61.5t60.5 80t61.5 100.5l88 383q-13 26 -42.5 43.5t-68.5 17.5q-110 0 -192.5 -75.5t-123 -196 t-40.5 -264.5z" />
<glyph unicode="A" horiz-adv-x="1316" d="M-76 0l15 72q82 11 126 43.5t97 132.5l600 1163h192l117 -1159q9 -93 40.5 -133t107.5 -47l-15 -72h-489l14 72q85 3 117.5 28t32.5 84q0 12 -2 35l-19 221h-463l-112 -221q-31 -60 -31 -90q0 -31 30 -43t97 -14l-14 -72h-441zM446 539h404l-41 434q-10 115 -10 198 q0 18 0.5 32.5t1 21.5t0.5 8h-13q-20 -72 -102 -229z" />
<glyph unicode="B" horiz-adv-x="1241" d="M-25 0l13 72q102 3 139 34t55 121l187 957q8 54 8 65q0 49 -31 68t-110 22l12 72h549q218 0 310.5 -81.5t92.5 -227.5q0 -153 -86.5 -246.5t-243.5 -112.5v-8q122 -17 198.5 -95.5t76.5 -186.5q0 -220 -150 -347q-78 -66 -180 -86t-301 -20h-539zM358 100h209 q181 0 256 62q105 92 105 289q0 118 -60.5 176.5t-212.5 58.5h-182zM492 784h180q79 0 131.5 15.5t97.5 54.5q98 86 98 256q0 112 -57.5 156.5t-196.5 44.5h-151z" />
<glyph unicode="C" horiz-adv-x="1183" d="M129 492q0 143 30 279t92 256.5t149 211t210 143t267 52.5q125 0 203.5 -28.5t138.5 -76.5l-45 -223h-140q-3 53 -7 85.5t-15.5 63.5t-30.5 47t-51 25.5t-78 9.5q-111 0 -201 -57.5t-146 -147.5t-94 -207t-53.5 -229t-15.5 -221q0 -221 67 -314t205 -93q122 0 195 52.5 t119 172.5h135l-43 -215q-69 -43 -182 -75t-232 -32q-477 0 -477 521z" />
<glyph unicode="D" horiz-adv-x="1347" d="M-25 0l13 72q102 3 139 34t55 121l187 957q8 36 8 65q0 49 -31 68t-110 22l12 72h483q274 0 421.5 -124t147.5 -386q0 -213 -68.5 -424.5t-184.5 -324.5q-92 -89 -207.5 -120.5t-315.5 -31.5h-549zM360 104h172q143 0 233.5 31.5t162.5 124.5q77 100 121.5 290t44.5 368 q0 98 -14.5 165.5t-52 122.5t-108.5 82t-178 27h-145z" />
<glyph unicode="E" horiz-adv-x="1163" d="M-25 0l13 72q102 3 139 34t55 121l187 957q8 46 8 65q0 49 -31 68t-110 22l12 72h960l-39 -307h-86q-11 122 -40 164.5t-115 42.5h-334l-102 -525h182q97 0 139.5 29.5t65.5 116.5h84l-76 -389h-84q3 22 3 40q0 51 -23 74q-31 31 -126 31h-184l-115 -588h336 q117 0 167.5 47t92.5 191h93l-66 -338h-1006z" />
<glyph unicode="F" horiz-adv-x="1112" d="M-25 0l13 72q102 3 139 34t55 121l187 957q8 40 8 65q0 49 -31 68t-110 22l12 72h950l-37 -317h-86q-19 138 -49 177.5t-123 39.5h-311l-109 -557h170q97 0 139.5 29.5t65.5 115.5h84l-78 -395h-84q3 23 3 42q0 52 -22 76q-30 32 -124 33h-172l-82 -422q-8 -50 -8 -65 q0 -51 34 -72t121 -24l-12 -72h-543z" />
<glyph unicode="G" horiz-adv-x="1327" d="M129 500q0 134 29 265.5t90 252.5t147.5 213t211 146.5t270.5 54.5q144 0 229.5 -27.5t144.5 -75.5l-45 -223h-139q-6 126 -49.5 177.5t-165.5 51.5q-111 0 -201 -56.5t-146 -145.5t-94 -205t-53.5 -228.5t-15.5 -222.5q0 -222 75.5 -315.5t229.5 -93.5q147 0 238 61 l63 334q8 50 8 65q0 49 -34 68t-127 22l14 72h512l-14 -72q-79 -3 -113 -35t-51 -120l-76 -387q-91 -50 -207 -77.5t-215 -27.5q-516 0 -516 529z" />
<glyph unicode="H" horiz-adv-x="1431" d="M-25 0l13 72q102 3 139 34t55 121l187 957q8 46 8 65q0 49 -31 68t-110 22l12 72h528l-12 -72q-102 -3 -139.5 -34t-55.5 -121l-75 -385h561l75 385q9 52 9 65q0 49 -31.5 68t-110.5 22l13 72h528l-12 -72q-102 -3 -139.5 -34t-55.5 -121l-186 -957q-8 -40 -8 -65 q0 -49 31 -68t110 -22l-12 -72h-529l13 72q102 3 139 34t55 121l90 469h-561l-90 -469q-8 -46 -8 -65q0 -49 31 -68t110 -22l-12 -72h-529z" />
<glyph unicode="I" horiz-adv-x="669" d="M-25 0l13 72q102 3 139 34t55 121l187 957q8 46 8 65q0 49 -31 68t-110 22l12 72h528l-12 -72q-102 -3 -139.5 -34t-55.5 -121l-186 -957q-8 -46 -8 -65q0 -49 31 -68t110 -22l-12 -72h-529z" />
<glyph unicode="J" horiz-adv-x="688" d="M-137 -225q68 28 117 59.5t82.5 65.5t57 83t37.5 98.5t29 123.5l191 979q8 54 8 65q0 49 -31 68t-110 22l12 72h528l-12 -72q-102 -3 -139 -34t-55 -121l-189 -963q-47 -241 -153 -353t-338 -169z" />
<glyph unicode="K" horiz-adv-x="1273" d="M-25 0l13 72q102 3 139 34t55 121l187 957q8 46 8 65q0 49 -31 68t-110 22l12 72h528l-12 -72q-102 -3 -139.5 -34t-55.5 -121l-186 -957q-8 -46 -8 -65q0 -49 31 -68t110 -22l-12 -72h-529zM518 745l434 435q70 70 70 108q0 48 -98 51l12 72h434l-12 -72 q-72 -10 -127.5 -50.5t-186.5 -168.5l-339 -332l305 -616q27 -54 66 -74t120 -26l-12 -72h-316z" />
<glyph unicode="L" horiz-adv-x="1089" d="M-25 0l13 72q102 3 139 34t55 121l187 957q8 46 8 65q0 49 -31 68t-110 22l12 72h538l-12 -72q-107 -3 -148 -36.5t-59 -124.5l-209 -1078h289q110 0 168 52t117 194h90l-96 -346h-951z" />
<glyph unicode="M" horiz-adv-x="1701" d="M-35 0l12 72q87 3 121.5 34.5t59.5 126.5l250 951q12 44 12 69q0 44 -33.5 62.5t-112.5 23.5l13 72h399l96 -897q13 -138 13 -246v-28h12q28 118 100 260l465 911h406l-13 -72q-106 -6 -144.5 -38.5t-49.5 -116.5l-123 -951q-4 -27 -4 -63q0 -54 24.5 -74.5t92.5 -23.5 l-13 -72h-493l12 72q99 3 133.5 31.5t46.5 115.5l107 750q11 76 45 241h-13q-11 -33 -42.5 -109.5t-51.5 -113.5l-518 -987h-119l-102 942q-16 150 -16 270h-13q-1 -4 -7.5 -44.5t-12 -74t-14.5 -78.5t-17 -73l-186 -721q-15 -62 -15 -78q0 -38 30.5 -53.5t105.5 -17.5 l-13 -72h-430z" />
<glyph unicode="N" horiz-adv-x="1370" d="M-25 0l13 72q102 3 139 34t55 121l187 957q8 46 8 65q0 49 -31 68t-110 22l12 72h319l357 -856q38 -94 58.5 -177.5t23.5 -117.5h12q10 172 57 422l99 502q8 46 8 65q0 49 -31.5 68t-110.5 22l13 72h444l-12 -72q-93 -3 -126.5 -34t-51.5 -121l-230 -1184h-133l-350 836 q-36 86 -61.5 167.5t-34 121.5t-9.5 59h-12q-11 -188 -49 -377l-113 -580q-8 -36 -8 -65q0 -49 31.5 -68t110.5 -22l-13 -72h-461z" />
<glyph unicode="O" horiz-adv-x="1378" d="M129 516q0 84 12.5 171t39.5 177.5t67 173t98.5 155t129.5 126t164.5 84.5t199.5 31q227 0 359 -138.5t132 -398.5q0 -100 -17 -203t-51.5 -208t-92 -196.5t-132.5 -163.5t-180 -113.5t-227 -41.5q-238 0 -370 143.5t-132 401.5zM342 449q0 -203 68.5 -292t218.5 -89 q103 0 176.5 45t134.5 141q86 137 132 338t46 364q0 190 -66.5 284.5t-213.5 94.5q-110 0 -186.5 -45.5t-135.5 -138.5q-87 -134 -130.5 -330t-43.5 -372z" />
<glyph unicode="P" horiz-adv-x="1165" d="M-25 0l13 72q102 3 139 34t55 121l187 957q8 46 8 65q0 49 -31 68t-110 22l12 72h471q257 0 369 -81.5t112 -264.5q0 -145 -68.5 -253t-179.5 -165q-116 -59 -338 -59h-163l-68 -355q-8 -41 -8 -65q0 -52 34 -72.5t121 -23.5l-12 -72h-543zM471 686h156q151 0 223 53 q65 47 104 131.5t39 198.5q0 125 -55.5 183.5t-198.5 58.5h-147z" />
<glyph unicode="Q" horiz-adv-x="1378" d="M129 516q0 84 12.5 171t40 177.5t67.5 173t98.5 155t129.5 126t165 84.5t200 31q226 0 357.5 -138.5t131.5 -398.5q0 -112 -22 -228.5t-71 -233t-118.5 -211t-173.5 -160t-227 -80.5q25 -6 91.5 -22.5t111 -26.5t105.5 -19.5t106 -9.5q91 0 147 20l-55 -155 q-20 -9 -66 -15t-86 -6q-69 0 -146.5 27.5t-140 63t-155 80.5t-174.5 71q-328 103 -328 524zM342 449q0 -204 66 -292.5t215 -88.5q104 0 180.5 45t136.5 141q86 137 132 338t46 364q0 191 -65 285t-213 94q-110 0 -188 -45.5t-136 -138.5q-87 -134 -130.5 -330t-43.5 -372z " />
<glyph unicode="R" horiz-adv-x="1253" d="M-25 0l13 72q102 3 139 34t55 121l187 957q8 40 8 65q0 49 -31 68t-110 22l12 72h516q422 0 422 -311q0 -215 -133.5 -322.5t-358.5 -107.5v-8q131 -35 191 -134q17 -30 38 -82t50 -131t47 -125q25 -64 53.5 -89.5t100.5 -28.5l-13 -72h-291q-108 340 -170 489 q-40 96 -89 128.5t-144 35.5l-84 -426q-8 -46 -8 -65q0 -49 31 -68t110 -22l-12 -72h-529zM483 741h156q167 0 253.5 85t86.5 251q0 128 -63.5 181t-200.5 53h-121z" />
<glyph unicode="S" horiz-adv-x="1030" d="M8 94l47 256h131q0 -151 53.5 -216.5t200.5 -65.5q143 0 224 75.5t81 204.5q0 96 -47.5 161.5t-142.5 113.5l-121 63q-111 58 -168 137.5t-57 202.5q0 182 128.5 295t326.5 113q134 0 227 -34.5t143 -82.5l-39 -221h-125q0 114 -52 177.5t-175 63.5t-192.5 -69 t-69.5 -181q0 -93 42.5 -145.5t135.5 -101.5l121 -64q55 -29 95.5 -59t77.5 -72.5t56 -99.5t19 -127q0 -202 -130 -324.5t-376 -122.5q-273 0 -414 123z" />
<glyph unicode="T" horiz-adv-x="1165" d="M180 1090l62 321h1040l-65 -321h-95q4 62 4 79q0 81 -25.5 111.5t-96.5 30.5h-150l-211 -1084q-8 -44 -8 -63q0 -49 33 -69t120 -23l-14 -72h-549l15 72q73 2 112 17t58.5 46t31.5 92l211 1084h-153q-99 0 -141 -44.5t-80 -176.5h-99z" />
<glyph unicode="U" horiz-adv-x="1372" d="M193 311q0 80 18 178l133 695q6 34 6 59q0 53 -31 73t-108 23l12 72h529l-13 -72q-104 -3 -140 -33.5t-54 -121.5l-137 -701q-19 -97 -19 -166q0 -116 62 -169.5t198 -53.5q162 0 252.5 92.5t124.5 266.5l141 731q9 56 9 65q0 48 -32.5 67.5t-119.5 22.5l12 72h463 l-12 -72q-93 -3 -126.5 -34t-51.5 -121l-142 -731q-49 -249 -179 -365.5t-345 -116.5q-228 0 -339 89t-111 251z" />
<glyph unicode="V" horiz-adv-x="1302" d="M180 1339l15 72h495l-14 -72q-96 -3 -132 -35q-31 -27 -31 -90q0 -11 1 -22l49 -621q9 -113 19 -411h12q64 169 188 411l320 621q31 60 31 90q0 31 -30 43t-97 14l14 72h440l-14 -72q-83 -12 -124 -47t-97 -141l-607 -1151h-188l-117 1157q-10 98 -34.5 136.5t-98.5 45.5 z" />
<glyph unicode="W" horiz-adv-x="1796" d="M180 1339l13 72h485l-12 -72q-94 -8 -130 -35t-36 -100v-12l18 -582v-71q0 -149 -8 -289h12q52 153 142 360l342 801h172l45 -803q10 -174 10 -358h12q90 247 135 358l219 539q31 76 31 113q0 39 -30.5 56.5t-100.5 22.5l12 72h443l-12 -72q-74 -10 -117 -54t-86 -144 l-484 -1141h-182l-49 897q-4 82 -4 129q0 34 1 77t1 46h-12q-34 -124 -90 -252l-385 -897h-189l-37 1159q-3 100 -28 136.5t-101 43.5z" />
<glyph unicode="X" horiz-adv-x="1239" d="M-66 0l13 72q64 8 114.5 45.5t133.5 144.5l364 473l-180 453q-34 86 -66.5 114.5t-95.5 36.5l12 72h488l-12 -72q-71 -3 -102.5 -22t-31.5 -55q0 -30 19 -78l119 -312h8l223 310q49 67 49 104q0 25 -22.5 37.5t-73.5 15.5l12 72h410l-12 -72q-65 -8 -113.5 -42 t-114.5 -121l-315 -416l203 -520q35 -91 72.5 -125.5t99.5 -42.5l-13 -72h-491l12 72q93 3 118 41q11 17 11 41q0 31 -18 75l-146 389h-8l-287 -393q-47 -64 -47 -100q0 -26 26.5 -38t82.5 -15l-13 -72h-428z" />
<glyph unicode="Y" horiz-adv-x="1206" d="M180 1339l13 72h469l-13 -72q-65 -2 -95 -20.5t-30 -58.5q0 -20 15 -78l131 -484h8l317 488q43 67 43 100q0 28 -25.5 39t-82.5 14l12 72h422l-12 -72q-66 -8 -113.5 -44.5t-122.5 -145.5l-393 -571l-68 -351q-6 -33 -6 -58q0 -43 17 -63q29 -31 135 -34l-15 -72h-548 l14 72q106 3 147 34.5t56 120.5l61 338l-176 606q-28 93 -62.5 126.5t-97.5 41.5z" />
<glyph unicode="Z" horiz-adv-x="1132" d="M-14 0l20 115l971 1196h-373q-100 0 -165 -54.5t-120 -177.5h-90l93 332h897l-21 -115l-973 -1196h410q116 0 181.5 55.5t125.5 196.5h90l-98 -352h-948z" />
<glyph unicode="[" horiz-adv-x="718" d="M72 -317l370 1900h379l-16 -86h-217l-336 -1728h217l-18 -86h-379z" />
<glyph unicode="\" horiz-adv-x="897" d="M266 1559h133l355 -1864h-133z" />
<glyph unicode="]" horiz-adv-x="718" d="M-49 -317l18 86h215l336 1728h-217l16 86h379l-370 -1900h-377z" />
<glyph unicode="^" horiz-adv-x="1216" d="M123 635l575 815h140l256 -815h-146l-207 668l-458 -668h-160z" />
<glyph unicode="_" horiz-adv-x="1015" d="M-4 -154h1024v-102h-1024v102z" />
<glyph unicode="`" horiz-adv-x="1116" d="M264 1356l109 186l366 -313l-41 -70z" />
<glyph unicode="a" d="M72 252q0 150 53.5 294.5t141 251t203.5 171.5t235 65q71 0 122 -26t64 -80q23 37 76 86h102q-53 -90 -98 -287l-109 -477q-10 -48 -10 -72q0 -43 23 -61.5t69 -18.5q28 0 66 6l6 -63q-112 -59 -201 -59q-147 0 -147 161q0 55 14 115q-180 -283 -375 -283q-113 0 -174 74 t-61 203zM268 264q0 -79 29 -117t78 -38q40 0 88.5 31t94.5 81.5t86 105t73 111.5l100 424q-11 34 -43 55t-82 21q-112 0 -211 -96t-156 -251.5t-57 -326.5z" />
<glyph unicode="b" horiz-adv-x="1126" d="M61 0q51 100 91 287l196 915q10 48 10 72q0 57 -33.5 80t-109.5 26l14 62l293 53h27q12 -36 12 -100q0 -106 -33 -246l-92 -401q35 55 75 101.5t90 89t110.5 67t122.5 24.5q105 0 163 -76.5t58 -226.5q0 -197 -72 -368.5t-208.5 -279.5t-307.5 -108q-84 0 -144 35.5 t-83 83.5q-28 -45 -40 -60t-30 -30h-109zM311 158q13 -33 59.5 -59.5t104.5 -26.5q114 0 203 92t134.5 239t45.5 320q0 174 -98 174q-57 0 -129.5 -57t-130.5 -130t-103 -151z" />
<glyph unicode="c" horiz-adv-x="931" d="M72 360q0 94 27 190.5t78.5 182.5t121 153t160.5 106.5t190 39.5q184 0 283 -82l-41 -188h-139v26q0 77 -28.5 112.5t-92.5 35.5q-104 0 -189.5 -87.5t-130.5 -222.5t-45 -282q0 -125 56 -190.5t157 -65.5q144 0 279 125l53 -72q-64 -72 -162.5 -121t-208.5 -49 q-172 0 -270 101t-98 288z" />
<glyph unicode="d" horiz-adv-x="1132" d="M72 262q0 161 57.5 306.5t151 246t215 160t247.5 59.5q67 0 121 -28l39 196q8 39 8 74q0 57 -32.5 79t-108.5 25l14 62l289 53h27q10 -30 10 -94q0 -104 -31 -252l-192 -899q-10 -48 -10 -74q0 -41 21.5 -59.5t70.5 -18.5q27 0 65 6l6 -63q-129 -59 -209 -59 q-70 0 -104.5 44.5t-34.5 123.5q0 45 13 108q-45 -75 -99 -135t-131 -104t-156 -44q-115 0 -181 76.5t-66 210.5zM268 276q0 -87 31 -127t82 -40q48 0 100.5 30.5t99.5 82t85.5 104.5t72.5 112l95 441q-40 57 -119 57q-120 0 -223 -87.5t-163.5 -240t-60.5 -332.5z" />
<glyph unicode="e" horiz-adv-x="976" d="M72 367q0 118 44 237t118.5 214t183.5 154.5t229 59.5q137 0 218 -66.5t81 -187.5q0 -152 -163 -242t-468 -90h-45q-4 -31 -4 -96q0 -125 55 -193.5t154 -68.5q155 0 305 141l54 -71q-73 -83 -180.5 -135t-237.5 -52q-168 0 -256 103t-88 293zM287 541h59q115 0 197 18 t128 53t66.5 78.5t20.5 100.5q0 62 -33.5 102.5t-89.5 40.5q-121 0 -215.5 -112t-132.5 -281z" />
<glyph unicode="f" horiz-adv-x="620" d="M-195 -289q129 8 182 52t76 165l189 965h-129l12 65l135 46l33 163q32 159 135.5 243.5t253.5 84.5q112 0 195 -37l-35 -170h-125q0 57 -14.5 88t-55.5 31q-60 0 -99 -40t-60 -140l-43 -221h247l-51 -113h-217l-190 -948q-67 -330 -314 -330q-57 0 -125 33v63z" />
<glyph unicode="g" horiz-adv-x="1015" d="M-72 -195q0 106 135 168l82 4q-45 -68 -45 -151q0 -141 244 -141q166 0 246 57t80 160q0 64 -49 96t-154 37q-133 6 -211 14q-84 7 -129 36.5t-45 102.5q0 74 62.5 129.5t172.5 90.5q-91 22 -141.5 96.5t-50.5 167.5q0 105 57.5 188.5t149.5 127.5t198 44q77 0 189 -23.5 t149 -23.5q78 0 164 55l45 -139q-74 -29 -133 -29q-72 0 -143 39q40 -34 65 -91t25 -118q0 -52 -25 -106t-75 -104t-138.5 -81.5t-201.5 -31.5q-7 0 -19.5 1t-19.5 1q-63 -12 -110.5 -47.5t-47.5 -71.5q0 -51 68 -53l167 -4q181 -4 267 -65.5t86 -186.5q0 -113 -67.5 -195.5 t-179.5 -123t-255 -40.5q-210 0 -311 58t-101 153zM309 643q0 -82 44 -126t128 -44q74 0 126 44t75 110t23 145q0 80 -43.5 123t-131.5 43q-91 0 -156 -78t-65 -217z" />
<glyph unicode="h" horiz-adv-x="1087" d="M61 0l258 1202q9 44 9 72q0 57 -33 80t-109 26l15 62l293 53h26q12 -36 12 -96q0 -110 -32 -250l-88 -395q184 280 391 280q91 0 134.5 -51.5t43.5 -136.5q0 -34 -10 -86l-109 -510q-12 -59 -12 -82q0 -37 19.5 -53.5t64.5 -16.5q30 0 76 6l6 -63q-129 -59 -213 -59 q-73 0 -107 38t-34 113q0 42 14 117l102 491q10 48 10 74q0 74 -67 74q-45 0 -96.5 -31.5t-99 -83.5t-86.5 -105.5t-72 -109.5l-119 -559h-187z" />
<glyph unicode="i" horiz-adv-x="548" d="M80 903l14 64q40 20 99 34.5t106 14.5q137 0 137 -146q0 -46 -16 -118l-115 -502q-12 -49 -12 -82q0 -37 19.5 -53.5t66.5 -16.5q29 0 76 6l6 -63q-129 -59 -230 -59q-67 0 -101 39t-34 112q0 44 17 117l114 475q13 50 13 78q0 54 -37.5 77t-122.5 23zM274 1319 q0 54 36.5 91.5t90.5 37.5t90.5 -37.5t36.5 -91.5t-36.5 -91.5t-90.5 -37.5t-90.5 37.5t-36.5 91.5z" />
<glyph unicode="j" horiz-adv-x="542" d="M-156 -338q130 55 183.5 128t85.5 235l139 700q12 54 12 78q0 54 -37.5 77t-122.5 23l15 64q40 20 99 34.5t106 14.5q137 0 137 -150q0 -30 -15 -114l-153 -760q-18 -91 -52.5 -158.5t-89 -115t-119 -79.5t-155.5 -61zM299 1319q0 54 36.5 91.5t90.5 37.5t90.5 -37.5 t36.5 -91.5t-36.5 -91.5t-90.5 -37.5t-90.5 37.5t-36.5 91.5z" />
<glyph unicode="k" horiz-adv-x="997" d="M61 0l258 1202q9 44 9 72q0 57 -33 80t-109 26l15 62l293 53h26q12 -36 12 -96q0 -110 -32 -250l-252 -1149h-187zM391 551l440 455h207l-18 -88q-74 0 -145.5 -46t-174.5 -145l-135 -129l168 -387q19 -41 32 -60.5t38 -32t65 -12.5q21 0 72 7l6 -64q-106 -61 -192 -61 q-71 0 -116 41.5t-91 148.5z" />
<glyph unicode="l" horiz-adv-x="544" d="M94 137q0 49 12 113l205 952q8 39 8 74q0 56 -32.5 78.5t-108.5 25.5l15 62l292 53h27q12 -36 12 -96q0 -110 -32 -250l-193 -899q-12 -62 -12 -84q0 -37 19.5 -52.5t68.5 -15.5q33 0 82 6l6 -63q-126 -59 -225 -59q-75 0 -109.5 38.5t-34.5 116.5z" />
<glyph unicode="m" horiz-adv-x="1624" d="M82 0l154 725q10 52 10 80q0 54 -34 76t-118 22l15 64q96 49 200 49q58 0 89.5 -41.5t31.5 -122.5q0 -64 -14 -121q194 303 385 303q168 0 168 -198q0 -42 -6 -88q193 286 376 286q91 0 135 -51.5t44 -136.5q0 -29 -11 -86l-108 -510q-13 -63 -13 -82q0 -37 20 -53.5 t67 -16.5q29 0 73 6l6 -63q-129 -59 -211 -59q-73 0 -107 39t-34 118q0 49 12 111l103 491q10 48 10 74q0 74 -68 74q-134 0 -329 -320l-121 -569h-186l155 735q10 52 10 80q0 74 -65 74q-41 0 -89 -31.5t-93 -84.5t-81 -104.5t-71 -109.5l-119 -559h-186z" />
<glyph unicode="n" horiz-adv-x="1107" d="M82 0l154 725q10 52 10 80q0 54 -34 76t-118 22l15 64q96 49 200 49q58 0 89.5 -41.5t31.5 -122.5q0 -58 -14 -121q38 60 80 110t94 95.5t112 71.5t121 26q91 0 134.5 -51.5t43.5 -136.5q0 -34 -10 -86l-108 -510q-13 -63 -13 -82q0 -37 19.5 -53.5t66.5 -16.5q30 0 74 6 l6 -63q-129 -59 -209 -59q-145 0 -145 151q0 42 14 117l103 491q10 48 10 74q0 74 -68 74q-45 0 -96.5 -31.5t-99 -83.5t-86.5 -105.5t-72 -109.5l-119 -559h-186z" />
<glyph unicode="o" horiz-adv-x="1060" d="M72 365q0 139 44 264t117.5 213t172 139t204.5 51q180 0 279.5 -112t99.5 -285q0 -176 -66 -327t-191 -244t-281 -93q-173 0 -276 109.5t-103 284.5zM268 334q0 -264 191 -264q107 0 186 92q71 82 109.5 217t38.5 287q0 268 -191 268q-120 0 -209 -129 q-59 -85 -92 -209.5t-33 -261.5z" />
<glyph unicode="p" d="M-143 -401l14 69q91 6 122 31.5t50 112.5l195 913q10 52 10 80q0 54 -34 76t-118 22l15 64q96 49 200 49q58 0 89.5 -41.5t31.5 -122.5q0 -58 -14 -121q51 79 107.5 141.5t138 110t163.5 47.5q105 0 163.5 -77t58.5 -226q0 -143 -45 -278t-125 -242t-202 -171.5 t-265 -64.5q-77 0 -144 23l-39 -184q-8 -33 -8 -64q0 -42 30.5 -58.5t110.5 -19.5l-14 -69h-491zM297 131q17 -29 51.5 -46t77.5 -17q85 0 156.5 38.5t120.5 103.5t83 150t50 177t16 186q0 174 -98 174q-43 0 -96 -32t-102 -83.5t-91.5 -108t-75.5 -112.5z" />
<glyph unicode="q" horiz-adv-x="1069" d="M61 252q0 150 53.5 294.5t141 251t203.5 171.5t235 65q71 0 122.5 -26t64.5 -80q24 39 75 86h103q-53 -90 -98 -287l-209 -915q-11 -53 -11 -68q0 -39 27 -55t94 -21l-16 -69h-490l17 69q103 4 138 31t54 111l107 448q-180 -283 -375 -283q-113 0 -174.5 74t-61.5 203z M258 264q0 -79 29 -117t78 -38q40 0 88.5 31t94.5 81.5t86 105t73 111.5l100 424q-11 34 -43 55t-82 21q-112 0 -211 -96t-156 -251.5t-57 -326.5z" />
<glyph unicode="r" horiz-adv-x="737" d="M82 0l154 725q10 52 10 80q0 54 -34 76t-118 22l15 64q96 49 200 49q117 0 117 -174q0 -54 -8 -109q60 130 141 215.5t162 85.5q30 0 57 -10l-43 -209q-23 10 -61 10q-109 0 -191 -96.5t-121 -282.5l-94 -446h-186z" />
<glyph unicode="s" horiz-adv-x="866" d="M10 63l35 201h129v-24q0 -95 41 -134.5t143 -39.5q99 0 163.5 45t64.5 139q0 68 -35.5 103.5t-116.5 70.5l-104 45q-97 42 -148 103t-51 161q0 141 111.5 221t273.5 80q176 0 289 -78l-31 -184h-125q-3 84 -42 126t-132 42q-82 0 -129 -42.5t-47 -117.5q0 -51 25.5 -85.5 t93.5 -63.5l104 -45q122 -52 179 -116t57 -167q0 -146 -117 -239t-299 -93q-92 0 -167 18.5t-104 34.5t-61 39z" />
<glyph unicode="t" horiz-adv-x="653" d="M102 158q0 42 13 102l133 633h-121l12 65l146 48q78 204 153 290l107 17q-20 -54 -47 -150t-39 -157h243l-51 -113h-217l-131 -619q-12 -61 -12 -100q0 -53 26.5 -74.5t85.5 -21.5q50 0 123 26l17 -67q-132 -66 -232 -66q-209 0 -209 187z" />
<glyph unicode="u" horiz-adv-x="1099" d="M72 903l14 64q96 49 201 49q59 0 94 -43.5t35 -128.5q0 -34 -15 -115l-98 -465q-10 -48 -10 -74q0 -73 67 -73q45 0 97 31.5t99.5 83.5t86.5 105t72 109l119 560h184l-158 -756q-10 -45 -10 -68q0 -43 24 -62.5t76 -19.5q12 0 58 4l6 -63q-112 -59 -207 -59 q-72 0 -108.5 46t-36.5 126q0 49 12 104q-187 -287 -395 -287q-91 0 -135 52t-44 137q0 29 11 86l102 479q10 52 10 80q0 54 -33.5 76t-117.5 22z" />
<glyph unicode="v" horiz-adv-x="935" d="M31 903l14 64q96 49 195 49q70 0 94 -55.5t35 -212.5l22 -302q6 -95 6 -161q0 -85 -4 -109h13l126 227q78 139 128.5 245.5t73 178t30 110.5t10.5 83l172 -31v-71l-549 -926h-145l-62 737q-3 39 -5.5 60.5t-9 44t-16.5 33.5t-27.5 20.5t-41.5 12.5t-59 3z" />
<glyph unicode="w" horiz-adv-x="1435" d="M31 903l14 64q96 49 195 49q67 0 92.5 -50.5t38.5 -185.5l30 -307q13 -135 13 -237v-31h12l348 801h125l59 -494q27 -221 27 -307h10l80 184q116 266 156 397.5t47 233.5l168 -31v-71l-473 -928h-125l-53 481q-17 166 -17 285h-6l-346 -766h-147l-89 739q-8 73 -16 102 q-11 40 -42.5 56t-100.5 16z" />
<glyph unicode="x" horiz-adv-x="972" d="M-41 0l18 88q75 14 121 47.5t111 124.5l186 256l-88 264q-26 79 -64 101t-124 22l14 64q32 16 53 25t52.5 16.5t64.5 7.5q62 0 101.5 -38.5t68.5 -143.5l57 -209l242 381h221l-18 -88q-70 -6 -111.5 -30.5t-93.5 -92.5l-205 -273l99 -305q22 -67 51.5 -92t87.5 -25 q29 0 61 4l6 -63q-124 -59 -215 -59q-60 0 -98.5 56t-71.5 175l-55 197l-266 -410h-205z" />
<glyph unicode="y" horiz-adv-x="948" d="M-31 -313q129 28 215 96t160 219l-61 -6q-8 216 -50 489l-36 244q-9 57 -16 84.5t-24.5 51t-47 31t-80.5 7.5l14 64q96 49 190 49q30 0 50 -9.5t33.5 -25.5t24.5 -53t17.5 -74t16.5 -106l35 -242q22 -150 22 -270q0 -15 -1 -36.5t-1 -25.5h12l107 199q217 406 231 647 l178 -31v-71l-528 -965q-104 -189 -196.5 -275.5t-229.5 -113.5z" />
<glyph unicode="z" horiz-adv-x="890" d="M-61 0l12 80l737 749q-66 1 -183.5 7t-148.5 6q-61 0 -98.5 -35t-71.5 -109l-73 11q36 170 85.5 241.5t139.5 71.5q68 0 209.5 -40t189.5 -40q68 0 111 64h94l-14 -84l-758 -748q76 0 198 -8t160 -8q134 0 217 155l64 -16q-25 -83 -44.5 -135t-39.5 -91t-42.5 -58 t-49 -27.5t-64.5 -8.5q-81 0 -216 43t-199 43q-86 0 -123 -63h-92z" />
<glyph unicode="{" horiz-adv-x="778" d="M92 598l14 70q111 0 172.5 43t81.5 143l95 485q12 64 39.5 112t66 76.5t82.5 42t94 13.5h164l-16 -82h-117q-130 0 -158 -151l-92 -471q-12 -64 -37 -112t-55.5 -73.5t-58 -39t-54.5 -17.5l-2 -8q47 -8 83 -47t36 -119q0 -37 -8 -76l-92 -471q-6 -24 -6 -49 q0 -103 106 -103h117l-17 -81h-163q-100 0 -148.5 38t-48.5 123q0 41 8 82l96 486q7 35 7 55q0 70 -47 100.5t-142 30.5z" />
<glyph unicode="|" horiz-adv-x="542" d="M51 -305l361 1864h131l-361 -1864h-131z" />
<glyph unicode="}" horiz-adv-x="796" d="M-61 -317l16 79h115q129 0 157 152l92 473q12 64 37 112t55.5 73.5t58 39t54.5 17.5l2 8q-47 8 -82.5 47t-35.5 119q0 37 8 76l92 471q6 24 6 49q0 102 -106 102h-117l16 82h164q100 0 148.5 -39t48.5 -125q0 -34 -9 -80l-94 -485q-6 -30 -6 -55q0 -69 46 -100t140 -31 l-14 -70q-110 0 -171 -43t-81 -143l-98 -494q-23 -119 -100 -177t-181 -58h-161z" />
<glyph unicode="~" horiz-adv-x="1134" d="M123 487q41 129 112 198t160 69q54 0 108 -15.5t91.5 -34t87 -34t94.5 -15.5q59 0 111 34t88 95l78 -43q-50 -120 -126.5 -188t-164.5 -68q-68 0 -139 25.5t-135.5 50.5t-116.5 25q-56 0 -96.5 -34.5t-81.5 -102.5z" />
<glyph unicode="&#xa1;" horiz-adv-x="665" d="M43 -420l307 1008h109l-168 -977zM328 895q0 58 40.5 98.5t96.5 40.5q55 0 93 -40t38 -99q0 -56 -38 -94.5t-95 -38.5q-56 0 -95.5 39t-39.5 94z" />
<glyph unicode="&#xa2;" horiz-adv-x="931" d="M72 360q0 111 38.5 224t105 206.5t165 158.5t209.5 79l41 197h92l-41 -195q161 -7 250 -80l-41 -188h-139v20q0 69 -21 106t-67 46l-172 -846q136 5 266 125l53 -72q-60 -68 -150.5 -115t-193.5 -53l-35 -178h-92l37 180q-145 19 -225 118t-80 267zM266 344 q0 -200 135 -246l168 830q-132 -36 -217.5 -208t-85.5 -376z" />
<glyph unicode="&#xa3;" horiz-adv-x="1142" d="M-31 0l15 72q101 3 137.5 34t54.5 121l76 389h-156l23 91h151l35 178q50 253 191.5 372t345.5 119q203 0 301 -94l-45 -207h-133q0 54 -5.5 88t-21 63t-47.5 42.5t-82 13.5q-76 0 -129.5 -29t-95.5 -105.5t-68 -207.5l-47 -233h399l-22 -91h-393l-101 -516h330 q110 0 168.5 52t118.5 194h90l-98 -346h-992z" />
<glyph unicode="&#xa4;" horiz-adv-x="1005" d="M72 141l127 152q-68 74 -68 192q0 116 46.5 209t127.5 154l-67 149l129 76l67 -155q71 26 156 26q74 0 135 -22l129 153l100 -78l-120 -145q71 -74 71 -195q0 -122 -50 -216.5t-138 -155.5l67 -146l-127 -76l-71 160q-64 -20 -140 -20q-80 0 -139 20l-133 -160zM317 457 q0 -82 35.5 -121t112.5 -39q49 0 89.5 18.5t68 51t47.5 72.5t31.5 86t16.5 88t5 83q0 77 -36 116.5t-116 39.5q-122 0 -188 -108.5t-66 -286.5z" />
<glyph unicode="&#xa5;" horiz-adv-x="1193" d="M127 449l20 90h357l6 26l-37 123h-301l21 90h256l-115 393q-28 93 -62.5 126.5t-97.5 41.5l12 72h469l-12 -72q-67 -1 -96 -20.5t-29 -58.5q0 -24 14 -78l132 -484h8l317 488q43 66 43 100q0 28 -25.5 39t-82.5 14l12 72h422l-12 -72q-66 -8 -113.5 -44.5t-122.5 -145.5 l-256 -371h289l-21 -90h-329l-76 -110l-8 -39h389l-21 -90h-385l-43 -222q-8 -40 -8 -61q0 -51 33.5 -71t120.5 -23l-15 -72h-549l15 72q106 3 147 34.5t56 120.5l38 222h-360z" />
<glyph unicode="&#xa6;" horiz-adv-x="544" d="M51 -307l160 821h131l-160 -821h-131zM254 729l160 821h131l-160 -821h-131z" />
<glyph unicode="&#xa7;" horiz-adv-x="958" d="M10 -178l35 201h129v-25q0 -95 41 -134.5t143 -39.5q104 0 166 41t62 121q0 47 -21.5 84t-50.5 59.5t-80 52.5l-168 99q-184 107 -184 299q0 267 332 358q-41 23 -67 42.5t-52 48.5t-38.5 68.5t-12.5 90.5q0 141 111.5 221t273.5 80q176 0 289 -78l-31 -184h-125 q-3 84 -42 126t-132 42q-82 0 -129 -42.5t-47 -117.5q0 -46 28 -79.5t90 -70.5l150 -90q85 -51 132 -93t72 -98t25 -132q0 -142 -93.5 -236t-240.5 -125q95 -57 139 -113.5t44 -150.5q0 -136 -118 -226.5t-298 -90.5q-92 0 -167 18.5t-104 34.5t-61 39zM244 625 q0 -118 110 -183l131 -77q254 50 254 247q0 86 -40.5 140.5t-120.5 97.5l-74 39q-125 -28 -192.5 -94.5t-67.5 -169.5z" />
<glyph unicode="&#xa8;" horiz-adv-x="911" d="M119 1307q0 53 35.5 88t87.5 35t87.5 -35t35.5 -88t-35.5 -88t-87.5 -35t-87.5 35t-35.5 88zM547 1307q0 53 35.5 88t87.5 35t87.5 -35t35.5 -88t-35.5 -88t-87.5 -35t-87.5 35t-35.5 88z" />
<glyph unicode="&#xa9;" horiz-adv-x="1632" d="M113 705q0 161 57.5 298.5t156.5 232t232.5 147.5t282.5 53t282.5 -53t232.5 -147.5t156.5 -232t57.5 -298.5q0 -217 -96 -384t-261.5 -256.5t-371.5 -89.5t-371.5 89.5t-261.5 256.5t-96 384zM225 702q0 -143 48 -263.5t131.5 -202.5t196.5 -127.5t241 -45.5t241 45.5 t196 127.5t131 202.5t48 263.5q0 146 -48 268t-131 203.5t-195.5 127t-241.5 45.5t-241.5 -45.5t-196 -127t-131.5 -203.5t-48 -268zM412 696q0 213 110.5 333t327.5 120q186 0 295 -72v-178l-131 -2q-15 94 -47 132t-123 38q-250 0 -250 -354q0 -170 63.5 -270.5 t190.5 -100.5q95 0 132.5 37.5t51.5 126.5h119v-178q-113 -72 -295 -72q-221 0 -332.5 113.5t-111.5 326.5z" />
<glyph unicode="&#xaa;" horiz-adv-x="894" d="M82 905q0 116 41.5 228t109 194.5t157 133t181.5 50.5q55 0 95.5 -20.5t50.5 -60.5q15 27 57 65h100q-42 -70 -75 -221l-84 -367q-8 -31 -8 -55q0 -33 17.5 -47t53.5 -14q22 0 51 4l5 -52q-77 -47 -177 -47q-114 0 -114 125q0 41 12 90q-143 -219 -291 -219 q-87 0 -134.5 57t-47.5 156zM252 920q0 -60 21 -89.5t57 -29.5q56 0 126 76t126 174l77 327q-20 56 -96 56q-83 0 -155 -73t-114 -191.5t-42 -249.5z" />
<glyph unicode="&#xab;" horiz-adv-x="1036" d="M82 500l432 436l59 -64l-294 -378l145 -369l-80 -62zM483 500l432 436l60 -64l-295 -378l145 -369l-80 -62z" />
<glyph unicode="&#xac;" horiz-adv-x="1038" d="M113 485l22 115h801l-88 -453h-121l66 338h-680z" />
<glyph unicode="&#xad;" horiz-adv-x="641" d="M98 481l27 146h416l-27 -146h-416z" />
<glyph unicode="&#xae;" horiz-adv-x="1632" d="M113 705q0 161 57.5 298.5t156.5 232t232.5 147.5t282.5 53t282.5 -53t232.5 -147.5t156.5 -232t57.5 -298.5q0 -217 -96 -384t-261.5 -256.5t-371.5 -89.5t-371.5 89.5t-261.5 256.5t-96 384zM225 702q0 -143 48 -263.5t131.5 -202.5t196.5 -127.5t241 -45.5t241 45.5 t196 127.5t131 202.5t48 263.5q0 146 -48 268t-131 203.5t-195.5 127t-241.5 45.5t-241.5 -45.5t-196 -127t-131.5 -203.5t-48 -268zM459 279v59q73 1 91.5 24.5t18.5 96.5v493q0 73 -18.5 96.5t-91.5 24.5v64h352q162 0 247 -52t85 -182q0 -125 -64.5 -173.5t-195.5 -51.5 v-6q103 -25 168 -129q13 -22 69 -129q27 -47 48.5 -60t78.5 -14v-61h-235q-43 95 -109 217q-24 44 -32 58.5t-25 41.5t-26 34.5t-25.5 19.5t-33.5 14.5t-40 3.5v-209q0 -74 24.5 -96.5t102.5 -24.5v-59h-389zM721 739h80q102 0 141 35t39 129q0 84 -44.5 120t-162.5 36h-53 v-320z" />
<glyph unicode="&#xaf;" horiz-adv-x="718" d="M61 1208l21 117h575l-20 -117h-576z" />
<glyph unicode="&#xb0;" horiz-adv-x="841" d="M123 1026q0 182 102 290.5t269 108.5q143 0 225 -80t82 -221q0 -103 -43 -191.5t-130 -145t-202 -56.5q-139 0 -221 79t-82 216zM279 1034q0 -101 38.5 -143.5t120.5 -42.5q101 0 153 78.5t52 203.5q0 96 -39.5 137.5t-120.5 41.5q-96 0 -150 -74.5t-54 -200.5z" />
<glyph unicode="&#xb1;" horiz-adv-x="1144" d="M82 51l20 115h801l-20 -115h-801zM188 606l23 115h344l61 317h121l-61 -317h336l-23 -115h-336l-65 -336h-121l65 336h-344z" />
<glyph unicode="&#xb2;" horiz-adv-x="702" d="M25 512l18 84l195 164q57 48 77.5 65.5t60.5 53t53.5 51.5t36.5 44t30 47t13.5 44.5t6.5 52.5q0 59 -31 85t-94 26q-106 0 -217 -107l-39 58q48 68 128 110.5t188 42.5q110 0 172.5 -47.5t62.5 -140.5q0 -33 -10 -65.5t-23.5 -59t-42.5 -58.5t-51.5 -54t-66.5 -56.5 t-72 -55t-82 -59.5l-145 -106h450l-45 -119h-573z" />
<glyph unicode="&#xb3;" horiz-adv-x="673" d="M-27 561q50 -12 123 -12q133 0 227.5 61.5t94.5 169.5q0 65 -33.5 91t-99.5 26q-24 0 -70 -4l21 88q18 -2 61 -2q77 0 125.5 39t48.5 117q0 53 -30 77.5t-91 24.5q-96 0 -178 -82l-47 53q109 125 287 125q100 0 162.5 -42t62.5 -126q0 -83 -63.5 -142t-159.5 -77 q81 -9 124.5 -52.5t43.5 -113.5q0 -77 -40 -138.5t-105.5 -97.5t-143 -54.5t-158.5 -18.5q-95 0 -151 18z" />
<glyph unicode="&#xb4;" horiz-adv-x="1116" d="M362 1229l367 313l109 -186l-435 -197z" />
<glyph unicode="&#xb5;" horiz-adv-x="1099" d="M-35 -432l248 1157q10 52 10 80q0 54 -33.5 76t-117.5 22l14 64q96 49 201 49q59 0 94 -44t35 -128q0 -34 -15 -115l-98 -465q-10 -48 -10 -74q0 -73 67 -73q45 0 97 31.5t99.5 83.5t86.5 105t72 109l119 560h184l-158 -756q-10 -44 -10 -68q0 -43 24 -62.5t76 -19.5 q12 0 58 4l6 -63q-112 -59 -207 -59q-72 0 -108.5 46t-36.5 126q0 49 12 104q-78 -130 -169 -208.5t-179 -78.5q-40 0 -67.5 16t-35.5 40l-8 -4q4 -20 4 -52q0 -41 -12 -106l-49 -238z" />
<glyph unicode="&#xb6;" horiz-adv-x="1312" d="M143 950q0 241 143.5 351t415.5 110h693l-13 -63q-101 -3 -138.5 -34.5t-55.5 -121.5l-281 -1448h-112l305 1571h-174l-305 -1571h-113l172 885h-90q-224 0 -335.5 84t-111.5 237zM496 897q0 -93 32 -131.5t115 -38.5h55l115 588h-94q-105 0 -164 -104.5t-59 -313.5z" />
<glyph unicode="&#xb7;" horiz-adv-x="595" d="M152 569q0 64 41 107t104 43t104 -43t41 -107q0 -63 -41 -106t-104 -43t-104 43t-41 106z" />
<glyph unicode="&#xb8;" horiz-adv-x="589" d="M109 -354l32 65q57 -37 127 -37q39 0 60.5 16t21.5 58q0 64 -151 68l2 43l67 161l76 -12l-37 -88q87 -7 128.5 -49t41.5 -102q0 -175 -203 -175q-90 0 -165 52z" />
<glyph unicode="&#xb9;" horiz-adv-x="622" d="M25 512l12 59q113 3 145.5 17t44.5 69l113 527q-94 -43 -201 -72l-6 57l279 150h116l-139 -651q-5 -21 -5.5 -34.5t4.5 -25t15 -17.5t30.5 -10.5t46 -6.5t65.5 -3l-13 -59h-507z" />
<glyph unicode="&#xba;" horiz-adv-x="856" d="M82 993q0 214 125.5 361t294.5 147q138 0 215.5 -85.5t77.5 -215.5q0 -135 -51.5 -250t-149 -185.5t-219.5 -70.5q-134 0 -213.5 83t-79.5 216zM250 973q0 -195 137 -195q75 0 135 70q51 57 79 157t28 214q0 198 -137 198q-86 0 -150 -94q-43 -63 -67.5 -155.5 t-24.5 -194.5z" />
<glyph unicode="&#xbb;" horiz-adv-x="1036" d="M61 127l295 379l-145 368l80 62l262 -436l-432 -437zM463 127l295 379l-146 368l80 62l262 -436l-432 -437z" />
<glyph unicode="&#xbc;" horiz-adv-x="1703" d="M25 512l12 59q113 3 145.5 17t44.5 69l113 527q-94 -43 -201 -72l-6 57l279 150h116l-139 -651q-5 -21 -5.5 -34.5t4.5 -25t15 -17.5t30.5 -10.5t46 -6.5t65.5 -3l-13 -59h-507zM131 -252l1264 1747h110l-1263 -1747h-111zM952 186l11 52l432 569h155l-452 -547h274 q39 180 119 328l119 20l-74 -348h106l-14 -74h-106l-45 -206l-168 -23l49 229h-406z" />
<glyph unicode="&#xbd;" horiz-adv-x="1716" d="M25 512l12 59q113 3 145.5 17t44.5 69l113 527q-94 -43 -201 -72l-6 57l279 150h116l-139 -651q-5 -21 -5.5 -34.5t4.5 -25t15 -17.5t30.5 -10.5t46 -6.5t65.5 -3l-13 -59h-507zM131 -252l1264 1747h110l-1263 -1747h-111zM1014 0l18 84l195 164q57 48 77.5 65.5t60.5 53 t53.5 51.5t36.5 44t30 47t13.5 44.5t6.5 52.5q0 59 -31 85t-94 26q-106 0 -217 -107l-39 58q48 68 128 110.5t188 42.5q110 0 172.5 -47.5t62.5 -140.5q0 -33 -10 -65.5t-23.5 -59t-42.5 -58.5t-51.5 -54t-66.5 -56.5t-72 -55t-82 -59.5l-145 -106h450l-45 -119h-573z" />
<glyph unicode="&#xbe;" horiz-adv-x="1755" d="M-27 561q50 -12 123 -12q133 0 227.5 61.5t94.5 169.5q0 65 -33.5 91t-99.5 26q-24 0 -70 -4l21 88q18 -2 61 -2q77 0 125.5 39t48.5 117q0 53 -30 77.5t-91 24.5q-96 0 -178 -82l-47 53q109 125 287 125q100 0 162.5 -42t62.5 -126q0 -83 -63.5 -142t-159.5 -77 q81 -9 124.5 -52.5t43.5 -113.5q0 -77 -40 -138.5t-105.5 -97.5t-143 -54.5t-158.5 -18.5q-95 0 -151 18zM182 -252l1264 1747h110l-1263 -1747h-111zM1004 186l10 52l432 569h156l-453 -547h274q39 180 119 328l119 20l-74 -348h107l-15 -74h-106l-45 -206l-168 -23l49 229 h-405z" />
<glyph unicode="&#xbf;" horiz-adv-x="907" d="M0 -160q0 131 76 221.5t241 184.5q53 30 89 60t56.5 56.5t31 61.5t13.5 65t3 78h78q30 -63 30 -137q0 -83 -44.5 -151.5t-139.5 -133.5q-58 -40 -86 -61t-61.5 -52t-47.5 -57t-24 -62.5t-10 -82.5q0 -77 37.5 -119.5t113.5 -42.5q98 0 152 47t80 140h135l-41 -185 q-154 -96 -334 -96q-74 0 -135 14.5t-110 44.5t-76 82.5t-27 124.5zM428 885q0 62 42.5 105.5t102.5 43.5q58 0 99 -43.5t41 -105.5q0 -59 -40.5 -99.5t-99.5 -40.5t-102 41t-43 99z" />
<glyph unicode="&#xc0;" horiz-adv-x="1316" d="M-76 0l15 72q82 11 126 43.5t97 132.5l600 1163h192l117 -1159q9 -93 40.5 -133t107.5 -47l-15 -72h-489l14 72q85 3 117.5 28t32.5 84q0 12 -2 35l-19 221h-463l-112 -221q-31 -60 -31 -90q0 -31 30 -43t97 -14l-14 -72h-441zM446 539h404l-41 434q-10 115 -10 198 q0 18 0.5 32.5t1 21.5t0.5 8h-13q-20 -72 -102 -229zM541 1632l88 189l391 -262l-41 -70z" />
<glyph unicode="&#xc1;" horiz-adv-x="1316" d="M-76 0l15 72q82 11 126 43.5t97 132.5l600 1163h192l117 -1159q9 -93 40.5 -133t107.5 -47l-15 -72h-489l14 72q85 3 117.5 28t32.5 84q0 12 -2 35l-19 221h-463l-112 -221q-31 -60 -31 -90q0 -31 30 -43t97 -14l-14 -72h-441zM446 539h404l-41 434q-10 115 -10 198 q0 18 0.5 32.5t1 21.5t0.5 8h-13q-20 -72 -102 -229zM635 1559l391 262l88 -189l-438 -143z" />
<glyph unicode="&#xc2;" horiz-adv-x="1316" d="M-76 0l15 72q82 11 126 43.5t97 132.5l600 1163h192l117 -1159q9 -93 40.5 -133t107.5 -47l-15 -72h-489l14 72q85 3 117.5 28t32.5 84q0 12 -2 35l-19 221h-463l-112 -221q-31 -60 -31 -90q0 -31 30 -43t97 -14l-14 -72h-441zM446 539h404l-41 434q-10 115 -10 198 q0 18 0.5 32.5t1 21.5t0.5 8h-13q-20 -72 -102 -229zM524 1544l394 314l264 -318l-49 -57l-246 174l-320 -174z" />
<glyph unicode="&#xc3;" horiz-adv-x="1316" d="M-76 0l15 72q82 11 126 43.5t97 132.5l600 1163h192l117 -1159q9 -93 40.5 -133t107.5 -47l-15 -72h-489l14 72q85 3 117.5 28t32.5 84q0 12 -2 35l-19 221h-463l-112 -221q-31 -60 -31 -90q0 -31 30 -43t97 -14l-14 -72h-441zM446 539h404l-41 434q-10 115 -10 198 q0 18 0.5 32.5t1 21.5t0.5 8h-13q-20 -72 -102 -229zM522 1565q52 204 215 204q45 0 87 -14.5t68 -32.5t60.5 -32.5t67.5 -14.5q51 0 85.5 23.5t63.5 68.5l74 -28q-66 -195 -223 -195q-60 0 -112 22.5t-94 45t-77 22.5q-53 0 -83.5 -23.5t-61.5 -72.5z" />
<glyph unicode="&#xc4;" horiz-adv-x="1316" d="M-76 0l15 72q82 11 126 43.5t97 132.5l600 1163h192l117 -1159q9 -93 40.5 -133t107.5 -47l-15 -72h-489l14 72q85 3 117.5 28t32.5 84q0 12 -2 35l-19 221h-463l-112 -221q-31 -60 -31 -90q0 -31 30 -43t97 -14l-14 -72h-441zM446 539h404l-41 434q-10 115 -10 198 q0 18 0.5 32.5t1 21.5t0.5 8h-13q-20 -72 -102 -229zM543 1612q0 52 35.5 87.5t87.5 35.5t87 -35t35 -88t-35 -88t-87 -35t-87.5 35.5t-35.5 87.5zM971 1612q0 52 35.5 87.5t87.5 35.5t87.5 -35.5t35.5 -87.5t-35.5 -87.5t-87.5 -35.5t-87.5 35.5t-35.5 87.5z" />
<glyph unicode="&#xc5;" horiz-adv-x="1316" d="M-76 0l15 72q82 11 126 43.5t97 132.5l600 1163h192l117 -1159q9 -93 40.5 -133t107.5 -47l-15 -72h-489l14 72q85 3 117.5 28t32.5 84q0 12 -2 35l-19 221h-463l-112 -221q-31 -60 -31 -90q0 -31 30 -43t97 -14l-14 -72h-441zM446 539h404l-41 434q-10 115 -10 198 q0 18 0.5 32.5t1 21.5t0.5 8h-13q-20 -72 -102 -229zM657 1667q0 97 63 160t161 63q90 0 142 -55.5t52 -140.5q0 -97 -61 -159t-160 -62q-90 0 -143.5 55t-53.5 139zM741 1671q0 -58 29 -91.5t82 -33.5q61 0 100 40t39 100t-31 96.5t-86 36.5q-59 0 -96 -42t-37 -106z" />
<glyph unicode="&#xc6;" horiz-adv-x="1875" d="M-76 0l15 72q77 11 127 46t120 130l721 975q35 47 35 71q0 23 -29 33t-94 12l12 72h1090l-39 -307h-86q-11 122 -40.5 164.5t-115.5 42.5h-333l-103 -525h182q97 0 139.5 29.5t65.5 116.5h84l-76 -389h-83q11 83 -20 114t-126 31h-184l-115 -588h336q117 0 167.5 47 t92.5 191h92l-65 -338h-1006l12 72q102 3 139.5 34t55.5 121l53 275h-436l-209 -283q-45 -57 -45 -92q0 -52 121 -55l-14 -72h-441zM586 600h381l77 391q37 190 86 324h-12z" />
<glyph unicode="&#xc7;" horiz-adv-x="1183" d="M129 492q0 143 30 279t92 256.5t149 211t210 143t267 52.5q125 0 203.5 -28.5t138.5 -76.5l-45 -223h-140q-3 53 -7 85.5t-15.5 63.5t-30.5 47t-51 25.5t-78 9.5q-111 0 -201 -57.5t-146 -147.5t-94 -207t-53.5 -229t-15.5 -221q0 -221 67 -314t205 -93q122 0 195 52.5 t119 172.5h135l-43 -215q-69 -43 -182 -75t-232 -32h-31l-20 -51q87 -7 128.5 -49t41.5 -102q0 -175 -203 -175q-91 0 -166 52l33 65q57 -37 127 -37q39 0 60.5 16t21.5 58q0 64 -152 68l3 43l49 121q-369 55 -369 512z" />
<glyph unicode="&#xc8;" horiz-adv-x="1163" d="M-25 0l13 72q102 3 139 34t55 121l187 957q8 46 8 65q0 49 -31 68t-110 22l12 72h960l-39 -307h-86q-11 122 -40 164.5t-115 42.5h-334l-102 -525h182q97 0 139.5 29.5t65.5 116.5h84l-76 -389h-84q11 83 -20 114t-126 31h-184l-115 -588h336q117 0 167.5 47t92.5 191h93 l-66 -338h-1006zM516 1632l88 189l391 -262l-41 -70z" />
<glyph unicode="&#xc9;" horiz-adv-x="1163" d="M-25 0l13 72q102 3 139 34t55 121l187 957q8 46 8 65q0 49 -31 68t-110 22l12 72h960l-39 -307h-86q-11 122 -40 164.5t-115 42.5h-334l-102 -525h182q97 0 139.5 29.5t65.5 116.5h84l-76 -389h-84q11 83 -20 114t-126 31h-184l-115 -588h336q117 0 167.5 47t92.5 191h93 l-66 -338h-1006zM582 1559l391 262l88 -189l-438 -143z" />
<glyph unicode="&#xca;" horiz-adv-x="1163" d="M-25 0l13 72q102 3 139 34t55 121l187 957q8 46 8 65q0 49 -31 68t-110 22l12 72h960l-39 -307h-86q-11 122 -40 164.5t-115 42.5h-334l-102 -525h182q97 0 139.5 29.5t65.5 116.5h84l-76 -389h-84q11 83 -20 114t-126 31h-184l-115 -588h336q117 0 167.5 47t92.5 191h93 l-66 -338h-1006zM436 1544l393 314l265 -318l-50 -57l-245 174l-320 -174z" />
<glyph unicode="&#xcb;" horiz-adv-x="1163" d="M-25 0l13 72q102 3 139 34t55 121l187 957q8 46 8 65q0 49 -31 68t-110 22l12 72h960l-39 -307h-86q-11 122 -40 164.5t-115 42.5h-334l-102 -525h182q97 0 139.5 29.5t65.5 116.5h84l-76 -389h-84q11 83 -20 114t-126 31h-184l-115 -588h336q117 0 167.5 47t92.5 191h93 l-66 -338h-1006zM457 1612q0 52 35.5 87.5t87.5 35.5t87 -35t35 -88t-35 -88t-87 -35t-87.5 35.5t-35.5 87.5zM885 1612q0 52 35.5 87.5t87.5 35.5t87 -35t35 -88t-35 -88t-87 -35t-87.5 35.5t-35.5 87.5z" />
<glyph unicode="&#xcc;" horiz-adv-x="669" d="M-25 0l13 72q102 3 139 34t55 121l187 957q8 46 8 65q0 49 -31 68t-110 22l12 72h528l-12 -72q-102 -3 -139.5 -34t-55.5 -121l-186 -957q-8 -46 -8 -65q0 -49 31 -68t110 -22l-12 -72h-529zM233 1632l89 189l391 -262l-41 -70z" />
<glyph unicode="&#xcd;" horiz-adv-x="669" d="M-25 0l13 72q102 3 139 34t55 121l187 957q8 46 8 65q0 49 -31 68t-110 22l12 72h528l-12 -72q-102 -3 -139.5 -34t-55.5 -121l-186 -957q-8 -46 -8 -65q0 -49 31 -68t110 -22l-12 -72h-529zM299 1559l391 262l88 -189l-438 -143z" />
<glyph unicode="&#xce;" horiz-adv-x="669" d="M-25 0l13 72q102 3 139 34t55 121l187 957q8 46 8 65q0 49 -31 68t-110 22l12 72h528l-12 -72q-102 -3 -139.5 -34t-55.5 -121l-186 -957q-8 -46 -8 -65q0 -49 31 -68t110 -22l-12 -72h-529zM211 1544l393 314l264 -318l-49 -57l-246 174l-319 -174z" />
<glyph unicode="&#xcf;" horiz-adv-x="669" d="M-25 0l13 72q102 3 139 34t55 121l187 957q8 46 8 65q0 49 -31 68t-110 22l12 72h528l-12 -72q-102 -3 -139.5 -34t-55.5 -121l-186 -957q-8 -46 -8 -65q0 -49 31 -68t110 -22l-12 -72h-529zM195 1612q0 53 35 88t87 35q53 0 88 -35.5t35 -87.5t-35 -87.5t-88 -35.5 q-52 0 -87 35t-35 88zM623 1612q0 53 35 88t87 35q53 0 88 -35.5t35 -87.5t-35 -87.5t-88 -35.5q-52 0 -87 35t-35 88z" />
<glyph unicode="&#xd0;" horiz-adv-x="1347" d="M-25 0l13 72q102 3 139 34t55 121l92 473h-170l21 95h168l76 389q8 46 8 65q0 49 -31 68t-110 22l12 72h483q274 0 421.5 -124t147.5 -386q0 -213 -68.5 -424.5t-184.5 -324.5q-92 -89 -207.5 -120.5t-315.5 -31.5h-549zM360 104h172q143 0 233.5 31.5t162.5 124.5 q77 100 121.5 290t44.5 368q0 98 -14.5 165.5t-52 122.5t-108.5 82t-178 27h-145l-102 -520h329l-20 -95h-328z" />
<glyph unicode="&#xd1;" horiz-adv-x="1370" d="M-25 0l13 72q102 3 139 34t55 121l187 957q8 46 8 65q0 49 -31 68t-110 22l12 72h319l357 -856q38 -94 58.5 -177.5t23.5 -117.5h12q10 172 57 422l99 502q8 46 8 65q0 49 -31.5 68t-110.5 22l13 72h444l-12 -72q-93 -3 -126.5 -34t-51.5 -121l-230 -1184h-133l-350 836 q-36 86 -61.5 167.5t-34 121.5t-9.5 59h-12q-11 -188 -49 -377l-113 -580q-8 -36 -8 -65q0 -49 31.5 -68t110.5 -22l-13 -72h-461zM559 1565q52 204 215 204q45 0 87 -14.5t68 -32.5t60.5 -32.5t67.5 -14.5q51 0 85.5 23.5t63.5 68.5l74 -28q-66 -195 -223 -195 q-60 0 -112 22.5t-94 45t-77 22.5q-53 0 -83.5 -23.5t-61.5 -72.5z" />
<glyph unicode="&#xd2;" horiz-adv-x="1378" d="M129 516q0 84 12.5 171t39.5 177.5t67 173t98.5 155t129.5 126t164.5 84.5t199.5 31q227 0 359 -138.5t132 -398.5q0 -100 -17 -203t-51.5 -208t-92 -196.5t-132.5 -163.5t-180 -113.5t-227 -41.5q-238 0 -370 143.5t-132 401.5zM342 449q0 -203 68.5 -292t218.5 -89 q103 0 176.5 45t134.5 141q86 137 132 338t46 364q0 190 -66.5 284.5t-213.5 94.5q-110 0 -186.5 -45.5t-135.5 -138.5q-87 -134 -130.5 -330t-43.5 -372zM608 1632l88 189l391 -262l-40 -70z" />
<glyph unicode="&#xd3;" horiz-adv-x="1378" d="M129 516q0 84 12.5 171t39.5 177.5t67 173t98.5 155t129.5 126t164.5 84.5t199.5 31q227 0 359 -138.5t132 -398.5q0 -100 -17 -203t-51.5 -208t-92 -196.5t-132.5 -163.5t-180 -113.5t-227 -41.5q-238 0 -370 143.5t-132 401.5zM342 449q0 -203 68.5 -292t218.5 -89 q103 0 176.5 45t134.5 141q86 137 132 338t46 364q0 190 -66.5 284.5t-213.5 94.5q-110 0 -186.5 -45.5t-135.5 -138.5q-87 -134 -130.5 -330t-43.5 -372zM633 1559l391 262l88 -189l-438 -143z" />
<glyph unicode="&#xd4;" horiz-adv-x="1378" d="M129 516q0 84 12.5 171t39.5 177.5t67 173t98.5 155t129.5 126t164.5 84.5t199.5 31q227 0 359 -138.5t132 -398.5q0 -100 -17 -203t-51.5 -208t-92 -196.5t-132.5 -163.5t-180 -113.5t-227 -41.5q-238 0 -370 143.5t-132 401.5zM342 449q0 -203 68.5 -292t218.5 -89 q103 0 176.5 45t134.5 141q86 137 132 338t46 364q0 190 -66.5 284.5t-213.5 94.5q-110 0 -186.5 -45.5t-135.5 -138.5q-87 -134 -130.5 -330t-43.5 -372zM549 1544l393 314l264 -318l-49 -57l-246 174l-319 -174z" />
<glyph unicode="&#xd5;" horiz-adv-x="1378" d="M129 516q0 84 12.5 171t39.5 177.5t67 173t98.5 155t129.5 126t164.5 84.5t199.5 31q227 0 359 -138.5t132 -398.5q0 -100 -17 -203t-51.5 -208t-92 -196.5t-132.5 -163.5t-180 -113.5t-227 -41.5q-238 0 -370 143.5t-132 401.5zM342 449q0 -203 68.5 -292t218.5 -89 q103 0 176.5 45t134.5 141q86 137 132 338t46 364q0 190 -66.5 284.5t-213.5 94.5q-110 0 -186.5 -45.5t-135.5 -138.5q-87 -134 -130.5 -330t-43.5 -372zM539 1565q52 204 215 204q57 0 106.5 -23.5t92 -47t83.5 -23.5q91 0 150 92l74 -28q-66 -195 -224 -195q-48 0 -91 14 t-70 31t-59.5 31t-61.5 14q-53 0 -84 -23.5t-62 -72.5z" />
<glyph unicode="&#xd6;" horiz-adv-x="1378" d="M129 516q0 84 12.5 171t39.5 177.5t67 173t98.5 155t129.5 126t164.5 84.5t199.5 31q227 0 359 -138.5t132 -398.5q0 -100 -17 -203t-51.5 -208t-92 -196.5t-132.5 -163.5t-180 -113.5t-227 -41.5q-238 0 -370 143.5t-132 401.5zM342 449q0 -203 68.5 -292t218.5 -89 q103 0 176.5 45t134.5 141q86 137 132 338t46 364q0 190 -66.5 284.5t-213.5 94.5q-110 0 -186.5 -45.5t-135.5 -138.5q-87 -134 -130.5 -330t-43.5 -372zM551 1612q0 52 35.5 87.5t87.5 35.5t87.5 -35.5t35.5 -87.5t-35.5 -87.5t-87.5 -35.5t-87.5 35.5t-35.5 87.5z M979 1612q0 52 35.5 87.5t87.5 35.5t87.5 -35.5t35.5 -87.5t-35.5 -87.5t-87.5 -35.5t-87.5 35.5t-35.5 87.5z" />
<glyph unicode="&#xd7;" horiz-adv-x="1150" d="M115 233l389 326l-262 328l88 74l264 -328l391 328l64 -78l-392 -328l265 -326l-91 -73l-264 327l-391 -327z" />
<glyph unicode="&#xd8;" horiz-adv-x="1378" d="M84 -35l145 189q-100 136 -100 362q0 84 12.5 171t39.5 177.5t67 173t98.5 155t129.5 126t164.5 84.5t199.5 31q174 0 301 -88l123 161l82 -59l-134 -170q119 -141 119 -381q0 -100 -17 -203t-51.5 -208t-92 -196.5t-132.5 -163.5t-180 -113.5t-227 -41.5 q-212 0 -340 113l-133 -174zM342 449q0 -84 8 -136l705 922q-68 100 -217 100q-110 0 -186.5 -45.5t-135.5 -138.5q-87 -134 -130.5 -330t-43.5 -372zM383 201q61 -133 246 -133q103 0 176.5 45t134.5 141q86 137 132 338t46 364q0 100 -18 174z" />
<glyph unicode="&#xd9;" horiz-adv-x="1372" d="M193 311q0 80 18 178l133 695q6 34 6 59q0 53 -31 73t-108 23l12 72h529l-13 -72q-104 -3 -140 -33.5t-54 -121.5l-137 -701q-19 -97 -19 -166q0 -116 62 -169.5t198 -53.5q162 0 252.5 92.5t124.5 266.5l141 731q9 56 9 65q0 48 -32.5 67.5t-119.5 22.5l12 72h463 l-12 -72q-93 -3 -126.5 -34t-51.5 -121l-142 -731q-49 -249 -179 -365.5t-345 -116.5q-228 0 -339 89t-111 251zM666 1632l88 189l391 -262l-41 -70z" />
<glyph unicode="&#xda;" horiz-adv-x="1372" d="M193 311q0 80 18 178l133 695q6 34 6 59q0 53 -31 73t-108 23l12 72h529l-13 -72q-104 -3 -140 -33.5t-54 -121.5l-137 -701q-19 -97 -19 -166q0 -116 62 -169.5t198 -53.5q162 0 252.5 92.5t124.5 266.5l141 731q9 56 9 65q0 48 -32.5 67.5t-119.5 22.5l12 72h463 l-12 -72q-93 -3 -126.5 -34t-51.5 -121l-142 -731q-49 -249 -179 -365.5t-345 -116.5q-228 0 -339 89t-111 251zM690 1559l391 262l88 -189l-438 -143z" />
<glyph unicode="&#xdb;" horiz-adv-x="1372" d="M193 311q0 80 18 178l133 695q6 34 6 59q0 53 -31 73t-108 23l12 72h529l-13 -72q-104 -3 -140 -33.5t-54 -121.5l-137 -701q-19 -97 -19 -166q0 -116 62 -169.5t198 -53.5q162 0 252.5 92.5t124.5 266.5l141 731q9 56 9 65q0 48 -32.5 67.5t-119.5 22.5l12 72h463 l-12 -72q-93 -3 -126.5 -34t-51.5 -121l-142 -731q-49 -249 -179 -365.5t-345 -116.5q-228 0 -339 89t-111 251zM604 1544l393 314l265 -318l-50 -57l-245 174l-320 -174z" />
<glyph unicode="&#xdc;" horiz-adv-x="1372" d="M193 311q0 80 18 178l133 695q6 34 6 59q0 53 -31 73t-108 23l12 72h529l-13 -72q-104 -3 -140 -33.5t-54 -121.5l-137 -701q-19 -97 -19 -166q0 -116 62 -169.5t198 -53.5q162 0 252.5 92.5t124.5 266.5l141 731q9 56 9 65q0 48 -32.5 67.5t-119.5 22.5l12 72h463 l-12 -72q-93 -3 -126.5 -34t-51.5 -121l-142 -731q-49 -249 -179 -365.5t-345 -116.5q-228 0 -339 89t-111 251zM584 1612q0 52 35 87.5t88 35.5q52 0 87 -35t35 -88t-35 -88t-87 -35q-53 0 -88 35.5t-35 87.5zM1012 1612q0 52 35 87.5t88 35.5q52 0 87 -35t35 -88t-35 -88 t-87 -35q-53 0 -88 35.5t-35 87.5z" />
<glyph unicode="&#xdd;" horiz-adv-x="1206" d="M180 1339l13 72h469l-13 -72q-65 -2 -95 -20.5t-30 -58.5q0 -20 15 -78l131 -484h8l317 488q43 67 43 100q0 28 -25.5 39t-82.5 14l12 72h422l-12 -72q-66 -8 -113.5 -44.5t-122.5 -145.5l-393 -571l-68 -351q-17 -89 11.5 -120.5t134.5 -34.5l-15 -72h-548l14 72 q106 3 147 34.5t56 120.5l61 338l-176 606q-28 93 -62.5 126.5t-97.5 41.5zM612 1559l392 262l88 -189l-439 -143z" />
<glyph unicode="&#xde;" horiz-adv-x="1130" d="M-25 0l13 72q102 3 139 34t55 121l187 957q8 40 8 65q0 49 -31 68t-110 22l12 72h528l-12 -72q-102 -3 -139.5 -34t-55.5 -121l-8 -43h109q253 0 364 -78.5t111 -253.5q0 -139 -67 -242t-177 -157q-118 -58 -334 -58h-159l-25 -119q-8 -41 -8 -65q0 -52 34 -72.5 t121 -23.5l-12 -72h-543zM426 446h154q148 0 219 52q65 45 103 125.5t38 189.5q0 120 -54 174.5t-196 54.5h-147z" />
<glyph unicode="&#xdf;" horiz-adv-x="1134" d="M-195 -289q129 8 182 52t76 165l189 965h-131l14 65l137 48l19 94q18 94 66.5 170.5t114 124t140.5 73t152 25.5q148 0 240 -68t92 -174q0 -33 -11 -65t-25.5 -57t-42.5 -53.5t-47.5 -46t-56 -42.5t-52.5 -35t-52 -32q-51 -31 -66.5 -46.5t-15.5 -35.5q0 -12 10.5 -25.5 t42.5 -42.5q57 -52 95.5 -92.5t80.5 -96t63 -116.5t21 -125q0 -150 -108.5 -254t-288.5 -104q-95 0 -156.5 24.5t-113.5 71.5l55 82q50 -39 95.5 -57.5t105.5 -18.5q99 0 153 70t54 172t-37.5 183t-120.5 173q-47 52 -64.5 82.5t-17.5 62.5q0 41 24 67.5t105 82.5 q38 26 66 50t60 58.5t49.5 76t17.5 85.5q0 71 -43 111.5t-119 40.5q-111 0 -178 -68.5t-101 -238.5l-229 -1147q-30 -150 -108 -240t-210 -90q-57 0 -125 33v63z" />
<glyph unicode="&#xe0;" d="M72 252q0 150 53.5 294.5t141 251t203.5 171.5t235 65q71 0 122 -26t64 -80q23 37 76 86h102q-53 -90 -98 -287l-109 -477q-10 -48 -10 -72q0 -43 23 -61.5t69 -18.5q28 0 66 6l6 -63q-112 -59 -201 -59q-147 0 -147 161q0 55 14 115q-180 -283 -375 -283q-113 0 -174 74 t-61 203zM268 264q0 -79 29 -117t78 -38q40 0 88.5 31t94.5 81.5t86 105t73 111.5l100 424q-11 34 -43 55t-82 21q-112 0 -211 -96t-156 -251.5t-57 -326.5zM430 1356l109 186l366 -313l-41 -70z" />
<glyph unicode="&#xe1;" d="M72 252q0 150 53.5 294.5t141 251t203.5 171.5t235 65q71 0 122 -26t64 -80q23 37 76 86h102q-53 -90 -98 -287l-109 -477q-10 -48 -10 -72q0 -43 23 -61.5t69 -18.5q28 0 66 6l6 -63q-112 -59 -201 -59q-147 0 -147 161q0 55 14 115q-180 -283 -375 -283q-113 0 -174 74 t-61 203zM268 264q0 -79 29 -117t78 -38q40 0 88.5 31t94.5 81.5t86 105t73 111.5l100 424q-11 34 -43 55t-82 21q-112 0 -211 -96t-156 -251.5t-57 -326.5zM504 1229l366 313l109 -186l-434 -197z" />
<glyph unicode="&#xe2;" d="M72 252q0 150 53.5 294.5t141 251t203.5 171.5t235 65q71 0 122 -26t64 -80q23 37 76 86h102q-53 -90 -98 -287l-109 -477q-10 -48 -10 -72q0 -43 23 -61.5t69 -18.5q28 0 66 6l6 -63q-112 -59 -201 -59q-147 0 -147 161q0 55 14 115q-180 -283 -375 -283q-113 0 -174 74 t-61 203zM268 264q0 -79 29 -117t78 -38q40 0 88.5 31t94.5 81.5t86 105t73 111.5l100 424q-11 34 -43 55t-82 21q-112 0 -211 -96t-156 -251.5t-57 -326.5zM399 1217l394 313l264 -318l-49 -57l-246 174l-320 -174z" />
<glyph unicode="&#xe3;" d="M72 252q0 150 53.5 294.5t141 251t203.5 171.5t235 65q71 0 122 -26t64 -80q23 37 76 86h102q-53 -90 -98 -287l-109 -477q-10 -48 -10 -72q0 -43 23 -61.5t69 -18.5q28 0 66 6l6 -63q-112 -59 -201 -59q-147 0 -147 161q0 55 14 115q-180 -283 -375 -283q-113 0 -174 74 t-61 203zM268 264q0 -79 29 -117t78 -38q40 0 88.5 31t94.5 81.5t86 105t73 111.5l100 424q-11 34 -43 55t-82 21q-112 0 -211 -96t-156 -251.5t-57 -326.5zM416 1217q21 94 70.5 155.5t127.5 61.5q59 0 137 -32t117 -32q88 0 136 86l71 -31q-26 -88 -78.5 -147t-128.5 -59 q-60 0 -141 29.5t-113 29.5q-49 0 -77 -22t-54 -68z" />
<glyph unicode="&#xe4;" d="M72 252q0 150 53.5 294.5t141 251t203.5 171.5t235 65q71 0 122 -26t64 -80q23 37 76 86h102q-53 -90 -98 -287l-109 -477q-10 -48 -10 -72q0 -43 23 -61.5t69 -18.5q28 0 66 6l6 -63q-112 -59 -201 -59q-147 0 -147 161q0 55 14 115q-180 -283 -375 -283q-113 0 -174 74 t-61 203zM268 264q0 -79 29 -117t78 -38q40 0 88.5 31t94.5 81.5t86 105t73 111.5l100 424q-11 34 -43 55t-82 21q-112 0 -211 -96t-156 -251.5t-57 -326.5zM434 1307q0 53 35 88t88 35t88 -35t35 -88t-35 -88t-88 -35t-88 35t-35 88zM862 1307q0 53 35 88t88 35t88 -35 t35 -88t-35 -88t-88 -35t-88 35t-35 88z" />
<glyph unicode="&#xe5;" d="M72 252q0 150 53.5 294.5t141 251t203.5 171.5t235 65q71 0 122 -26t64 -80q23 37 76 86h102q-53 -90 -98 -287l-109 -477q-10 -48 -10 -72q0 -43 23 -61.5t69 -18.5q28 0 66 6l6 -63q-112 -59 -201 -59q-147 0 -147 161q0 55 14 115q-180 -283 -375 -283q-113 0 -174 74 t-61 203zM268 264q0 -79 29 -117t78 -38q40 0 88.5 31t94.5 81.5t86 105t73 111.5l100 424q-11 34 -43 55t-82 21q-112 0 -211 -96t-156 -251.5t-57 -326.5zM528 1341q0 97 63 160.5t161 63.5q90 0 142 -56t52 -141q0 -97 -61 -159t-160 -62q-90 0 -143.5 55t-53.5 139z M612 1346q0 -58 29 -91.5t82 -33.5q61 0 100 39.5t39 99.5t-31 96.5t-86 36.5q-59 0 -96 -41.5t-37 -105.5z" />
<glyph unicode="&#xe6;" horiz-adv-x="1548" d="M41 233q0 80 35.5 140t91.5 95t138 56.5t162 29t177 7.5h27l14 68q19 93 19 151q0 79 -33.5 116.5t-106.5 37.5q-105 0 -159.5 -42.5t-79.5 -129.5h-129l36 192q163 80 345 80q129 0 194.5 -35.5t101.5 -119.5q146 155 345 155q137 0 218 -67.5t81 -188.5 q0 -152 -151 -235.5t-464 -83.5h-61q-4 -31 -4 -109q0 -125 55 -193.5t154 -68.5q155 0 305 141l53 -71q-73 -83 -180.5 -135t-237.5 -52q-232 0 -311 193q-64 -89 -145.5 -141t-204.5 -52q-135 0 -210 65.5t-75 196.5zM233 236q0 -148 142 -148q83 0 143 38t135 124 q-10 58 -10 117q0 53 8 100h-24q-58 0 -102.5 -3t-92 -11.5t-81.5 -25t-62 -41.5t-42 -63t-14 -87zM858 555q10 0 30.5 -1t29.5 -1q222 0 316.5 61t94.5 177q0 62 -33.5 102.5t-89.5 40.5q-123 0 -216.5 -106.5t-131.5 -272.5z" />
<glyph unicode="&#xe7;" horiz-adv-x="931" d="M72 360q0 94 27 190.5t78.5 182.5t121 153t160.5 106.5t190 39.5q184 0 283 -82l-41 -188h-139v26q0 77 -28.5 112.5t-92.5 35.5q-104 0 -189.5 -87.5t-130.5 -222.5t-45 -282q0 -125 56 -190.5t157 -65.5q144 0 279 125l53 -72q-64 -72 -162.5 -121t-208.5 -49 q-23 0 -63 4l-23 -55q87 -7 128.5 -49t41.5 -102q0 -175 -202 -175q-91 0 -166 52l32 65q57 -37 127 -37q39 0 60.5 16t21.5 58q0 64 -151 68l2 43l55 133q-110 34 -170.5 128t-60.5 240z" />
<glyph unicode="&#xe8;" horiz-adv-x="976" d="M72 367q0 118 44 237t118.5 214t183.5 154.5t229 59.5q137 0 218 -66.5t81 -187.5q0 -152 -163 -242t-468 -90h-45q-4 -31 -4 -96q0 -125 55 -193.5t154 -68.5q155 0 305 141l54 -71q-73 -83 -180.5 -135t-237.5 -52q-168 0 -256 103t-88 293zM287 541h59q115 0 197 18 t128 53t66.5 78.5t20.5 100.5q0 62 -33.5 102.5t-89.5 40.5q-121 0 -215.5 -112t-132.5 -281zM406 1356l108 186l367 -313l-41 -70z" />
<glyph unicode="&#xe9;" horiz-adv-x="976" d="M72 367q0 118 44 237t118.5 214t183.5 154.5t229 59.5q137 0 218 -66.5t81 -187.5q0 -152 -163 -242t-468 -90h-45q-4 -31 -4 -96q0 -125 55 -193.5t154 -68.5q155 0 305 141l54 -71q-73 -83 -180.5 -135t-237.5 -52q-168 0 -256 103t-88 293zM287 541h59q115 0 197 18 t128 53t66.5 78.5t20.5 100.5q0 62 -33.5 102.5t-89.5 40.5q-121 0 -215.5 -112t-132.5 -281zM475 1229l367 313l108 -186l-434 -197z" />
<glyph unicode="&#xea;" horiz-adv-x="976" d="M72 367q0 118 44 237t118.5 214t183.5 154.5t229 59.5q137 0 218 -66.5t81 -187.5q0 -152 -163 -242t-468 -90h-45q-4 -31 -4 -96q0 -125 55 -193.5t154 -68.5q155 0 305 141l54 -71q-73 -83 -180.5 -135t-237.5 -52q-168 0 -256 103t-88 293zM287 541h59q115 0 197 18 t128 53t66.5 78.5t20.5 100.5q0 62 -33.5 102.5t-89.5 40.5q-121 0 -215.5 -112t-132.5 -281zM344 1217l393 313l264 -318l-49 -57l-245 174l-320 -174z" />
<glyph unicode="&#xeb;" horiz-adv-x="976" d="M72 367q0 118 44 237t118.5 214t183.5 154.5t229 59.5q137 0 218 -66.5t81 -187.5q0 -152 -163 -242t-468 -90h-45q-4 -31 -4 -96q0 -125 55 -193.5t154 -68.5q155 0 305 141l54 -71q-73 -83 -180.5 -135t-237.5 -52q-168 0 -256 103t-88 293zM287 541h59q115 0 197 18 t128 53t66.5 78.5t20.5 100.5q0 62 -33.5 102.5t-89.5 40.5q-121 0 -215.5 -112t-132.5 -281zM330 1307q0 53 35 88t88 35q52 0 87 -35t35 -88t-35 -88t-87 -35q-53 0 -88 35t-35 88zM758 1307q0 53 35 88t88 35t88 -35t35 -88t-35 -88t-88 -35t-88 35t-35 88z" />
<glyph unicode="&#xec;" horiz-adv-x="548" d="M80 903l14 64q40 20 99 34.5t106 14.5q137 0 137 -146q0 -46 -16 -118l-115 -502q-12 -49 -12 -82q0 -37 19.5 -53.5t66.5 -16.5q29 0 76 6l6 -63q-129 -59 -230 -59q-67 0 -101 39t-34 112q0 44 17 117l114 475q13 50 13 78q0 54 -37.5 77t-122.5 23zM88 1356l109 186 l366 -313l-41 -70z" />
<glyph unicode="&#xed;" horiz-adv-x="548" d="M80 903l14 64q40 20 99 34.5t106 14.5q137 0 137 -146q0 -46 -16 -118l-115 -502q-12 -49 -12 -82q0 -37 19.5 -53.5t66.5 -16.5q29 0 76 6l6 -63q-129 -59 -230 -59q-67 0 -101 39t-34 112q0 44 17 117l114 475q13 50 13 78q0 54 -37.5 77t-122.5 23zM199 1229l366 313 l109 -186l-434 -197z" />
<glyph unicode="&#xee;" horiz-adv-x="548" d="M45 1217l393 313l264 -318l-49 -57l-245 174l-320 -174zM80 903l14 64q40 20 99 34.5t106 14.5q137 0 137 -146q0 -46 -16 -118l-115 -502q-12 -49 -12 -82q0 -37 19.5 -53.5t66.5 -16.5q29 0 76 6l6 -63q-129 -59 -230 -59q-67 0 -101 39t-34 112q0 44 17 117l114 475 q13 50 13 78q0 54 -37.5 77t-122.5 23z" />
<glyph unicode="&#xef;" horiz-adv-x="548" d="M47 1307q0 53 35.5 88t87.5 35t87.5 -35t35.5 -88t-35.5 -88t-87.5 -35t-87.5 35t-35.5 88zM80 903l14 64q40 20 99 34.5t106 14.5q137 0 137 -146q0 -46 -16 -118l-115 -502q-12 -49 -12 -82q0 -37 19.5 -53.5t66.5 -16.5q29 0 76 6l6 -63q-129 -59 -230 -59 q-67 0 -101 39t-34 112q0 44 17 117l114 475q13 50 13 78q0 54 -37.5 77t-122.5 23zM475 1307q0 53 35.5 88t87.5 35t87.5 -35t35.5 -88t-35.5 -88t-87.5 -35t-87.5 35t-35.5 88z" />
<glyph unicode="&#xf0;" horiz-adv-x="1060" d="M72 365q0 139 44 264t117.5 213t172 139t204.5 51q76 0 133 -33q-47 140 -133 236l-313 -127l-35 78l279 112q-112 83 -275 123l41 64q209 -27 361 -135l237 96l35 -78l-197 -80q121 -112 183.5 -272t62.5 -350q0 -191 -66.5 -349t-190.5 -252t-281 -94 q-173 0 -276 109.5t-103 284.5zM268 334q0 -264 191 -264q107 0 186 92q71 82 109.5 217t38.5 287q0 104 -21 227q-22 16 -38 24.5t-46 16.5t-67 8q-134 0 -228 -137q-59 -85 -92 -209.5t-33 -261.5z" />
<glyph unicode="&#xf1;" horiz-adv-x="1107" d="M82 0l154 725q10 52 10 80q0 54 -34 76t-118 22l15 64q96 49 200 49q58 0 89.5 -41.5t31.5 -122.5q0 -58 -14 -121q38 60 80 110t94 95.5t112 71.5t121 26q91 0 134.5 -51.5t43.5 -136.5q0 -34 -10 -86l-108 -510q-13 -63 -13 -82q0 -37 19.5 -53.5t66.5 -16.5q30 0 74 6 l6 -63q-129 -59 -209 -59q-145 0 -145 151q0 42 14 117l103 491q10 48 10 74q0 74 -68 74q-45 0 -96.5 -31.5t-99 -83.5t-86.5 -105.5t-72 -109.5l-119 -559h-186zM367 1217q21 94 70.5 155.5t127.5 61.5q59 0 137 -32t117 -32q87 0 135 86l72 -31q-26 -88 -78.5 -147 t-128.5 -59q-60 0 -141 29.5t-113 29.5q-49 0 -77 -22t-54 -68z" />
<glyph unicode="&#xf2;" horiz-adv-x="1060" d="M72 365q0 139 44 264t117.5 213t172 139t204.5 51q180 0 279.5 -112t99.5 -285q0 -176 -66 -327t-191 -244t-281 -93q-173 0 -276 109.5t-103 284.5zM268 334q0 -264 191 -264q107 0 186 92q71 82 109.5 217t38.5 287q0 268 -191 268q-120 0 -209 -129 q-59 -85 -92 -209.5t-33 -261.5zM387 1356l109 186l366 -313l-41 -70z" />
<glyph unicode="&#xf3;" horiz-adv-x="1060" d="M72 365q0 139 44 264t117.5 213t172 139t204.5 51q180 0 279.5 -112t99.5 -285q0 -176 -66 -327t-191 -244t-281 -93q-173 0 -276 109.5t-103 284.5zM268 334q0 -264 191 -264q107 0 186 92q71 82 109.5 217t38.5 287q0 268 -191 268q-120 0 -209 -129 q-59 -85 -92 -209.5t-33 -261.5zM457 1229l366 313l109 -186l-434 -197z" />
<glyph unicode="&#xf4;" horiz-adv-x="1060" d="M72 365q0 139 44 264t117.5 213t172 139t204.5 51q180 0 279.5 -112t99.5 -285q0 -176 -66 -327t-191 -244t-281 -93q-173 0 -276 109.5t-103 284.5zM268 334q0 -264 191 -264q107 0 186 92q71 82 109.5 217t38.5 287q0 268 -191 268q-120 0 -209 -129 q-59 -85 -92 -209.5t-33 -261.5zM326 1217l393 313l264 -318l-49 -57l-246 174l-319 -174z" />
<glyph unicode="&#xf5;" horiz-adv-x="1060" d="M72 365q0 139 44 264t117.5 213t172 139t204.5 51q180 0 279.5 -112t99.5 -285q0 -176 -66 -327t-191 -244t-281 -93q-173 0 -276 109.5t-103 284.5zM268 334q0 -264 191 -264q107 0 186 92q71 82 109.5 217t38.5 287q0 268 -191 268q-120 0 -209 -129 q-59 -85 -92 -209.5t-33 -261.5zM360 1217q21 94 71 155.5t128 61.5q59 0 137 -32t117 -32q87 0 135 86l72 -31q-26 -88 -78.5 -147t-128.5 -59q-60 0 -141 29.5t-113 29.5q-49 0 -77 -22t-54 -68z" />
<glyph unicode="&#xf6;" horiz-adv-x="1060" d="M72 365q0 139 44 264t117.5 213t172 139t204.5 51q180 0 279.5 -112t99.5 -285q0 -176 -66 -327t-191 -244t-281 -93q-173 0 -276 109.5t-103 284.5zM268 334q0 -264 191 -264q107 0 186 92q71 82 109.5 217t38.5 287q0 268 -191 268q-120 0 -209 -129 q-59 -85 -92 -209.5t-33 -261.5zM350 1307q0 53 35 88t88 35t88 -35t35 -88t-35 -88t-88 -35t-88 35t-35 88zM778 1307q0 53 35 88t88 35t88 -35t35 -88t-35 -88t-88 -35t-88 35t-35 88z" />
<glyph unicode="&#xf7;" horiz-adv-x="1269" d="M113 502l20 108h1034l-20 -108h-1034zM438 111q0 56 38 95.5t93 39.5q54 0 92.5 -38.5t38.5 -92.5q0 -58 -38.5 -98t-92.5 -40q-56 0 -93.5 38.5t-37.5 95.5zM592 983q0 56 38 95.5t93 39.5q54 0 92.5 -38.5t38.5 -92.5q0 -58 -38.5 -97.5t-92.5 -39.5q-56 0 -93.5 38 t-37.5 95z" />
<glyph unicode="&#xf8;" horiz-adv-x="1060" d="M68 -61l104 143q-100 111 -100 283q0 139 44 264t117.5 213t172 139t204.5 51q120 0 213 -57l105 143l76 -55l-109 -150q94 -111 94 -278q0 -176 -66 -327t-191 -244t-281 -93q-120 0 -211 56l-103 -140zM268 334q0 -64 11 -107l466 641q-48 66 -143 66q-120 0 -209 -129 q-59 -85 -92 -209.5t-33 -261.5zM317 133q48 -63 142 -63q107 0 186 92q71 82 109.5 217t38.5 287q0 54 -9 100z" />
<glyph unicode="&#xf9;" horiz-adv-x="1099" d="M72 903l14 64q96 49 201 49q59 0 94 -43.5t35 -128.5q0 -34 -15 -115l-98 -465q-10 -48 -10 -74q0 -73 67 -73q45 0 97 31.5t99.5 83.5t86.5 105t72 109l119 560h184l-158 -756q-10 -45 -10 -68q0 -43 24 -62.5t76 -19.5q12 0 58 4l6 -63q-112 -59 -207 -59 q-72 0 -108.5 46t-36.5 126q0 49 12 104q-187 -287 -395 -287q-91 0 -135 52t-44 137q0 29 11 86l102 479q10 52 10 80q0 54 -33.5 76t-117.5 22zM336 1356l108 186l367 -313l-41 -70z" />
<glyph unicode="&#xfa;" horiz-adv-x="1099" d="M72 903l14 64q96 49 201 49q59 0 94 -43.5t35 -128.5q0 -34 -15 -115l-98 -465q-10 -48 -10 -74q0 -73 67 -73q45 0 97 31.5t99.5 83.5t86.5 105t72 109l119 560h184l-158 -756q-10 -45 -10 -68q0 -43 24 -62.5t76 -19.5q12 0 58 4l6 -63q-112 -59 -207 -59 q-72 0 -108.5 46t-36.5 126q0 49 12 104q-187 -287 -395 -287q-91 0 -135 52t-44 137q0 29 11 86l102 479q10 52 10 80q0 54 -33.5 76t-117.5 22zM446 1229l367 313l109 -186l-435 -197z" />
<glyph unicode="&#xfb;" horiz-adv-x="1099" d="M72 903l14 64q96 49 201 49q59 0 94 -43.5t35 -128.5q0 -34 -15 -115l-98 -465q-10 -48 -10 -74q0 -73 67 -73q45 0 97 31.5t99.5 83.5t86.5 105t72 109l119 560h184l-158 -756q-10 -45 -10 -68q0 -43 24 -62.5t76 -19.5q12 0 58 4l6 -63q-112 -59 -207 -59 q-72 0 -108.5 46t-36.5 126q0 49 12 104q-187 -287 -395 -287q-91 0 -135 52t-44 137q0 29 11 86l102 479q10 52 10 80q0 54 -33.5 76t-117.5 22zM354 1217l394 313l264 -318l-49 -57l-246 174l-320 -174z" />
<glyph unicode="&#xfc;" horiz-adv-x="1099" d="M72 903l14 64q96 49 201 49q59 0 94 -43.5t35 -128.5q0 -34 -15 -115l-98 -465q-10 -48 -10 -74q0 -73 67 -73q45 0 97 31.5t99.5 83.5t86.5 105t72 109l119 560h184l-158 -756q-10 -45 -10 -68q0 -43 24 -62.5t76 -19.5q12 0 58 4l6 -63q-112 -59 -207 -59 q-72 0 -108.5 46t-36.5 126q0 49 12 104q-187 -287 -395 -287q-91 0 -135 52t-44 137q0 29 11 86l102 479q10 52 10 80q0 54 -33.5 76t-117.5 22zM299 1307q0 53 35.5 88t87.5 35t87.5 -35t35.5 -88t-35.5 -88t-87.5 -35t-87.5 35t-35.5 88zM727 1307q0 53 35.5 88t87.5 35 t87.5 -35t35.5 -88t-35.5 -88t-87.5 -35t-87.5 35t-35.5 88z" />
<glyph unicode="&#xfd;" horiz-adv-x="948" d="M-31 -313q129 28 215 96t160 219l-61 -6q-8 216 -50 489l-36 244q-9 57 -16 84.5t-24.5 51t-47 31t-80.5 7.5l14 64q96 49 190 49q30 0 50 -9.5t33.5 -25.5t24.5 -53t17.5 -74t16.5 -106l35 -242q22 -150 22 -270q0 -15 -1 -36.5t-1 -25.5h12l107 199q217 406 231 647 l178 -31v-71l-528 -965q-104 -189 -196.5 -275.5t-229.5 -113.5zM393 1229l367 313l108 -186l-434 -197z" />
<glyph unicode="&#xfe;" d="M-143 -401l14 69q91 6 122 31.5t50 112.5l297 1390q10 48 10 72q0 57 -33.5 80t-109.5 26l14 62l293 53h27q12 -36 12 -100q0 -106 -33 -246l-90 -395q78 118 180.5 197t216.5 79q105 0 163.5 -77t58.5 -226q0 -143 -45 -278t-125 -242t-202 -171.5t-265 -64.5 q-77 0 -144 23l-39 -184q-8 -36 -8 -64q0 -42 30.5 -58.5t110.5 -19.5l-14 -69h-491zM297 131q17 -29 51.5 -46t77.5 -17q85 0 156.5 38.5t120.5 103.5t83 150t50 177t16 186q0 174 -98 174q-43 0 -96 -32t-102 -83.5t-91.5 -108t-75.5 -112.5z" />
<glyph unicode="&#xff;" horiz-adv-x="948" d="M-31 -313q129 28 215 96t160 219l-61 -6q-8 216 -50 489l-36 244q-9 57 -16 84.5t-24.5 51t-47 31t-80.5 7.5l14 64q96 49 190 49q30 0 50 -9.5t33.5 -25.5t24.5 -53t17.5 -74t16.5 -106l35 -242q22 -150 22 -270q0 -15 -1 -36.5t-1 -25.5h12l107 199q217 406 231 647 l178 -31v-71l-528 -965q-104 -189 -196.5 -275.5t-229.5 -113.5zM246 1307q0 53 35 88t88 35t88 -35t35 -88t-35 -88t-88 -35t-88 35t-35 88zM674 1307q0 53 35 88t88 35t88 -35t35 -88t-35 -88t-88 -35t-88 35t-35 88z" />
<glyph unicode="&#x152;" horiz-adv-x="1857" d="M131 537q0 178 55 335t157 277.5t262 191t356 70.5h942l-39 -307h-86q-11 122 -40.5 164.5t-115.5 42.5h-334l-102 -525h182q97 0 139.5 29.5t65.5 116.5h84l-76 -389h-84q4 32 4 43q0 58 -33 80t-116 22h-185l-114 -588h336q117 0 167.5 47t92.5 191h92l-66 -338h-958 q-277 0 -431.5 130.5t-154.5 406.5zM338 537q0 -109 20 -187.5t66.5 -136t125.5 -85.5t193 -28h109l235 1211h-124q-159 0 -263 -43.5t-180 -143.5q-90 -117 -136 -270t-46 -317z" />
<glyph unicode="&#x153;" horiz-adv-x="1665" d="M72 365q0 139 44 264t117.5 213t172 139t204.5 51q119 0 205 -56.5t129 -150.5q155 207 391 207q137 0 218 -66.5t81 -187.5q0 -152 -164 -242t-469 -90h-45q-4 -31 -4 -96q0 -125 56 -193.5t155 -68.5q155 0 305 141l54 -71q-73 -83 -180.5 -135t-237.5 -52 q-109 0 -183 44.5t-106 129.5q-67 -85 -161 -129.5t-203 -44.5q-173 0 -276 109.5t-103 284.5zM268 334q0 -264 191 -264q107 0 186 92q71 82 109.5 217t38.5 287q0 268 -191 268q-120 0 -209 -129q-59 -85 -92 -209.5t-33 -261.5zM973 541h55q418 0 418 250 q0 62 -33.5 102.5t-89.5 40.5q-122 0 -217 -112.5t-133 -280.5z" />
<glyph unicode="&#x178;" horiz-adv-x="1206" d="M180 1339l13 72h469l-13 -72q-65 -2 -95 -20.5t-30 -58.5q0 -20 15 -78l131 -484h8l317 488q43 67 43 100q0 28 -25.5 39t-82.5 14l12 72h422l-12 -72q-66 -8 -113.5 -44.5t-122.5 -145.5l-393 -571l-68 -351q-17 -89 11.5 -120.5t134.5 -34.5l-15 -72h-548l14 72 q106 3 147 34.5t56 120.5l61 338l-176 606q-28 93 -62.5 126.5t-97.5 41.5zM508 1612q0 52 35 87.5t88 35.5t88 -35.5t35 -87.5t-35 -87.5t-88 -35.5t-88 35.5t-35 87.5zM936 1612q0 52 35 87.5t88 35.5t88 -35.5t35 -87.5t-35 -87.5t-88 -35.5t-88 35.5t-35 87.5z" />
<glyph unicode="&#x2c6;" horiz-adv-x="1116" d="M211 1217l393 313l264 -318l-49 -57l-246 174l-319 -174z" />
<glyph unicode="&#x2dc;" horiz-adv-x="1116" d="M225 1217q21 94 71 155.5t128 61.5q59 0 137 -32t117 -32q87 0 135 86l72 -31q-26 -88 -78.5 -147t-128.5 -59q-60 0 -141 29.5t-113 29.5q-49 0 -77 -22t-54 -68z" />
<glyph unicode="&#x2000;" horiz-adv-x="945" />
<glyph unicode="&#x2001;" horiz-adv-x="1890" />
<glyph unicode="&#x2002;" horiz-adv-x="945" />
<glyph unicode="&#x2003;" horiz-adv-x="1890" />
<glyph unicode="&#x2004;" horiz-adv-x="630" />
<glyph unicode="&#x2005;" horiz-adv-x="472" />
<glyph unicode="&#x2006;" horiz-adv-x="315" />
<glyph unicode="&#x2007;" horiz-adv-x="315" />
<glyph unicode="&#x2008;" horiz-adv-x="236" />
<glyph unicode="&#x2009;" horiz-adv-x="378" />
<glyph unicode="&#x200a;" horiz-adv-x="105" />
<glyph unicode="&#x2010;" horiz-adv-x="641" d="M98 481l27 146h416l-27 -146h-416z" />
<glyph unicode="&#x2011;" horiz-adv-x="641" d="M98 481l27 146h416l-27 -146h-416z" />
<glyph unicode="&#x2012;" horiz-adv-x="641" d="M98 481l27 146h416l-27 -146h-416z" />
<glyph unicode="&#x2013;" horiz-adv-x="1210" d="M102 516l19 105h985l-19 -105h-985z" />
<glyph unicode="&#x2014;" horiz-adv-x="1669" d="M102 516l19 105h1444l-19 -105h-1444z" />
<glyph unicode="&#x2018;" horiz-adv-x="540" d="M207 1079q0 126 101.5 225.5t240.5 139.5l35 -60q-91 -35 -148 -81.5t-57 -92.5q0 -10 2.5 -18t5.5 -13t10.5 -10t11.5 -7.5t15.5 -7.5t15.5 -7q68 -30 68 -113q0 -63 -38 -100t-101 -37q-71 0 -116.5 51.5t-45.5 130.5z" />
<glyph unicode="&#x2019;" horiz-adv-x="540" d="M199 956q91 35 147.5 81.5t56.5 92.5q0 10 -3 18t-5 13t-10.5 10.5t-11.5 7.5t-15.5 8t-15.5 7q-68 30 -68 113q0 63 38.5 100t101.5 37q70 0 115.5 -51t45.5 -131q0 -126 -101.5 -225.5t-240.5 -139.5z" />
<glyph unicode="&#x201a;" horiz-adv-x="540" d="M10 -221q91 35 148 81.5t57 92.5q0 10 -2.5 18t-5.5 13t-10.5 10t-11.5 7.5t-15.5 7.5t-15.5 7q-68 30 -68 113q0 63 38 100t101 37q71 0 116.5 -51.5t45.5 -130.5q0 -126 -101.5 -225.5t-240.5 -139.5z" />
<glyph unicode="&#x201c;" horiz-adv-x="952" d="M207 1079q0 126 101.5 225.5t240.5 139.5l35 -60q-91 -35 -148 -81.5t-57 -92.5q0 -10 2.5 -18t5.5 -13t10.5 -10t11.5 -7.5t15.5 -7.5t15.5 -7q68 -30 68 -113q0 -63 -38 -100t-101 -37q-71 0 -116.5 51.5t-45.5 130.5zM618 1079q0 126 101.5 225.5t241.5 139.5l34 -60 q-91 -35 -147.5 -81.5t-56.5 -92.5q0 -10 2.5 -18t5.5 -13t10.5 -10t11.5 -7.5t15.5 -7.5t15.5 -7q68 -30 68 -113q0 -63 -38.5 -100t-101.5 -37q-71 0 -116.5 51.5t-45.5 130.5z" />
<glyph unicode="&#x201d;" horiz-adv-x="952" d="M199 956q91 35 147.5 81.5t56.5 92.5q0 10 -3 18t-5 13t-10.5 10.5t-11.5 7.5t-15.5 8t-15.5 7q-68 30 -68 113q0 63 38.5 100t101.5 37q70 0 115.5 -51t45.5 -131q0 -126 -101.5 -225.5t-240.5 -139.5zM610 956q91 35 148 81.5t57 92.5q0 10 -3 18t-5 13t-10.5 10.5 t-11.5 7.5t-15.5 8t-15.5 7q-68 30 -68 113q0 63 38 100t101 37q71 0 116.5 -51.5t45.5 -130.5q0 -126 -101.5 -225.5t-240.5 -139.5z" />
<glyph unicode="&#x201e;" horiz-adv-x="952" d="M10 -221q91 35 148 81.5t57 92.5q0 10 -2.5 18t-5.5 13t-10.5 10t-11.5 7.5t-15.5 7.5t-15.5 7q-68 30 -68 113q0 63 38 100t101 37q71 0 116.5 -51.5t45.5 -130.5q0 -126 -101.5 -225.5t-240.5 -139.5zM422 -221q91 35 148 81.5t57 92.5q0 12 -2.5 20.5t-11 15.5 t-11.5 9.5t-18.5 9.5t-18.5 8q-67 30 -67 113q0 63 38 100t101 37q71 0 116.5 -51.5t45.5 -130.5q0 -126 -101.5 -225.5t-240.5 -139.5z" />
<glyph unicode="&#x2022;" horiz-adv-x="1058" d="M168 686q0 151 103 257t251 106t252.5 -106t104.5 -257t-104.5 -256.5t-252.5 -105.5t-251 105.5t-103 256.5z" />
<glyph unicode="&#x2026;" horiz-adv-x="1511" d="M92 129q0 63 42 106.5t102 43.5q62 0 105.5 -43.5t43.5 -106.5q0 -64 -43 -111t-102 -47q-61 0 -104.5 46.5t-43.5 111.5zM580 129q0 63 40.5 106.5t100.5 43.5q63 0 106 -43.5t43 -106.5q0 -65 -42.5 -111.5t-102.5 -46.5q-61 0 -103 46.5t-42 111.5zM1065 129 q0 63 41.5 106.5t101.5 43.5q62 0 106 -43.5t44 -106.5q0 -64 -44 -111t-104 -47q-61 0 -103 46.5t-42 111.5z" />
<glyph unicode="&#x202f;" horiz-adv-x="378" />
<glyph unicode="&#x2039;" horiz-adv-x="634" d="M82 500l432 436l59 -64l-294 -378l145 -369l-80 -62z" />
<glyph unicode="&#x203a;" horiz-adv-x="634" d="M61 127l295 379l-145 368l80 62l262 -436l-432 -437z" />
<glyph unicode="&#x205f;" horiz-adv-x="472" />
<glyph unicode="&#x20ac;" horiz-adv-x="1282" d="M41 518l20 90h177q10 95 26 170h-174l21 90h176q81 259 261.5 412.5t418.5 153.5q135 0 215 -28t141 -77l-45 -223h-139q-3 67 -10 104t-26 69.5t-54 45t-93 12.5q-169 0 -286 -128t-174 -341h524l-21 -90h-524q-12 -54 -24 -170h520l-21 -90h-504v-43q0 -221 67.5 -314 t205.5 -93q121 0 194 52.5t119 172.5h135l-43 -215q-69 -43 -182 -75t-231 -32q-235 0 -356.5 137t-121.5 384v26h-192z" />
<glyph unicode="&#x2122;" horiz-adv-x="2146" d="M225 1110l60 301h731l-43 -301h-84v18q0 119 -27.5 158t-111.5 39h-31l-98 -504q-11 -53 -11 -73q0 -43 29.5 -62t105.5 -20l-12 -62h-459l13 62q100 3 134 33.5t52 121.5l98 504h-41q-100 0 -141.5 -42.5t-79.5 -172.5h-84zM958 598l13 64q66 3 97.5 30t55.5 113 l111 414q10 42 10 61q0 31 -21 44.5t-75 16.5l14 70h297l62 -461q8 -60 8 -116q0 -52 -4 -68h10q23 80 78 182l248 463h284l-14 -72q-74 -4 -98.5 -29t-32.5 -93l-47 -400q-2 -23 -2 -45q0 -63 24.5 -86.5t81.5 -26.5l-10 -61h-389l10 61q74 3 105 32.5t41 123.5l30 262 q6 47 35 178h-10q-29 -77 -84 -180l-262 -477h-99l-63 477q-12 86 -12 180h-13q-37 -168 -41 -182l-67 -258q-15 -55 -15 -88q0 -37 23 -50t78 -15l-12 -64h-345z" />
<glyph unicode="&#x25fc;" horiz-adv-x="1013" d="M0 0v1014h1014v-1014h-1014z" />
</font>
</defs>
</svg>
